/* XPM */
static char *oie_21125416o6zRaCgA1669032317[] = {
/* columns rows colors chars-per-pixel */
"32 32 7 1 ",
"  c None",
". c #060608",
"X c #AC3232",
"o c #DF7126",
"O c #847E87",
"+ c #9BADB7",
"@ c white",
/* pixels */
"                ..              ",
"                ..              ",
"              ..XX....          ",
"              ..XX....          ",
"        ........OOXX..          ",
"        ........OOXX..          ",
"      ..++++++++OOOO..          ",
"      ..++++++++OOOO..          ",
"      ..++++++++++++OO..        ",
"      ..++++++++++++OO..        ",
"      ..++++++++++++++..        ",
"      ..++++++++++++++..        ",
"      ..@@@@@@@@@@++++..        ",
"      ..@@@@@@@@@@++++..        ",
"      ..........@@++OO..        ",
"      ..........@@++OO..        ",
"      ..@@..@@@@@@OO....        ",
"      ..@@..@@@@@@OO....        ",
"      ..XXooXXXXXXXX..          ",
"      ..XXooXXXXXXXX..          ",
"      ..OOOOOOOOOOOO..XX        ",
"      ..OOOOOOOOOOOO..XX        ",
"      ..OO......OOOO..XX        ",
"      ..OO......OOOO..XX        ",
"        ..OO..XX..OO..XXXX      ",
"        ..OO..XX..OO..XXXX      ",
"          ....    ....          ",
"          ....    ....          ",
"                                ",
"                                ",
"                                ",
"                                "
};
