/* XPM */
static char *oie_2112532577iFf0n21669031957[] = {
/* columns rows colors chars-per-pixel */
"32 32 8 1 ",
"  c None",
". c #040406",
"X c #060608",
"o c #AC3232",
"O c #DF7126",
"+ c #847E87",
"@ c #9BADB7",
"# c white",
/* pixels */
"                XX              ",
"                XX              ",
"              XXooXXXX          ",
"              XXooXXXX          ",
"        XXXXXXXX++ooXX          ",
"        XXXXXXXX++ooXX          ",
"      XX@@@@@@@@++++XX          ",
"      XX@@@@@@@@++++XX          ",
"      XX##########@@++XX        ",
"      XX##########@@++XX        ",
"      XXXXXXXXXX##@@@@XX        ",
"      XXXXXXXXXX##@@@@XX        ",
"      XX##XX######@@@@XX        ",
"      XX##XX######@@@@XX        ",
"      XX######@@@@@@++XX        ",
"      XX######@@@@@@++XX        ",
"      XXooOOoooo++++XX          ",
"      XXooOOoooo++++XX          ",
"      XX++++++++ooooXXoo        ",
"      XX++++++++ooooXXoo        ",
"    XX++@@@@@@@@++++XXoooooo    ",
"    XX++@@@@@@@@++++XXoooooo    ",
"    XX++XXXXXXXXXX++++XXoo      ",
"    XX++XXXXXXXXXX++++XXoo      ",
"    ....          XXXXXX        ",
"    ....          XXXXXX        ",
"                                ",
"                                ",
"                                ",
"                                ",
"                                ",
"                                "
};
