/* XPM */
static char *x2_0039_knight_idle_anim_f21667990144[] = {
/* columns rows colors chars-per-pixel */
"32 32 7 1 ",
"  c None",
". c #060608",
"X c #AC3232",
"o c #DF7126",
"O c #847E87",
"+ c #9BADB7",
"@ c white",
/* pixels */
"                                ",
"                                ",
"          ......                ",
"          ......                ",
"          ..XXXX..              ",
"          ..XXXX..              ",
"            ..OO........        ",
"            ..OO........        ",
"          ..OOOO++++++++..      ",
"          ..OOOO++++++++..      ",
"        ..OO++++++++++++..      ",
"        ..OO++++++++++++..      ",
"        ..++++@@@@@@@@@@..      ",
"        ..++++@@@@@@@@@@..      ",
"        ..++++@@..........      ",
"        ..++++@@..........      ",
"        ..OO++@@@@@@..@@..      ",
"        ..OO++@@@@@@..@@..      ",
"        ....XXXXXXXXooXX..      ",
"        ....XXXXXXXXooXX..      ",
"          ..OOOOOOOOOOOO..      ",
"          ..OOOOOOOOOOOO..      ",
"        XX..OOOO......OO..      ",
"        XX..OOOO......OO..      ",
"      XXXX..OO..XX..OO..        ",
"      XXXX..OO..XX..OO..        ",
"          ....    ....          ",
"          ....    ....          ",
"                                ",
"                                ",
"                                ",
"                                "
};
