/* XPM */
static char *oie_21125150Q8S7PVKS1669031957[] = {
/* columns rows colors chars-per-pixel */
"32 32 9 1 ",
"  c None",
". c #040406",
"X c #060608",
"o c #565258",
"O c #AC3232",
"+ c #DF7126",
"@ c #847E87",
"# c #9BADB7",
"$ c white",
/* pixels */
"                                ",
"                                ",
"                XXXXXX          ",
"                XXXXXX          ",
"              XXOOOOXX          ",
"              XXOOOOXX          ",
"        XXXXXXXX@@XX            ",
"        XXXXXXXX@@XX            ",
"      XX########@@@@XX          ",
"      XX########@@@@XX          ",
"      XX############@@XX        ",
"      XX############@@XX        ",
"      XX$$$$$$$$$$####XX        ",
"      XX$$$$$$$$$$####XX        ",
"      XXXXXXXXXX$$####XX        ",
"      XXXXXXXXXX$$####XX        ",
"      XX$$XX$$$$$$##@@XX        ",
"      XX$$XX$$$$$$##@@XX        ",
"      XXOO++OOOO@@@@XX          ",
"      XXOO++OOOO@@@@XX          ",
"      XX@@@@@@@@OOOOXXOO        ",
"      XX@@@@@@@@OOOOXXOO        ",
"      XX########@@@@XXOOOOOO    ",
"      XX########@@@@XXOOOOOO    ",
"      ..@@XXXXXXXXXXOOOOOO      ",
"      ..@@XXXXXXXXXXOOOOOO      ",
"        ..oo..                  ",
"        ..oo..                  ",
"          ....                  ",
"          ....                  ",
"                                ",
"                                "
};
