/* XPM */
static char *x2_0032_knight_run_anim_f31667990143[] = {
/* columns rows colors chars-per-pixel */
"32 32 9 1 ",
"  c None",
". c #040406",
"X c #060608",
"o c #565258",
"O c #AC3232",
"+ c #DF7126",
"@ c #847E87",
"# c #9BADB7",
"$ c white",
/* pixels */
"                                ",
"                                ",
"          XXXXXX                ",
"          XXXXXX                ",
"          XXOOOOXX              ",
"          XXOOOOXX              ",
"            XX@@XXXXXXXX        ",
"            XX@@XXXXXXXX        ",
"          XX@@@@########XX      ",
"          XX@@@@########XX      ",
"        XX@@############XX      ",
"        XX@@############XX      ",
"        XX####$$$$$$$$$$XX      ",
"        XX####$$$$$$$$$$XX      ",
"        XX####$$XXXXXXXXXX      ",
"        XX####$$XXXXXXXXXX      ",
"        XX@@##$$$$$$XX$$XX      ",
"        XX@@##$$$$$$XX$$XX      ",
"          XX@@@@OOOO++OOXX      ",
"          XX@@@@OOOO++OOXX      ",
"        OOXXOOOO@@@@@@@@XX      ",
"        OOXXOOOO@@@@@@@@XX      ",
"    OOOOOOXX@@@@########XX      ",
"    OOOOOOXX@@@@########XX      ",
"      OOOOOOXXXXXXXXXX@@..      ",
"      OOOOOOXXXXXXXXXX@@..      ",
"                  ..oo..        ",
"                  ..oo..        ",
"                  ....          ",
"                  ....          ",
"                                ",
"                                "
};
