/* XPM */
static char *oie_21125116HKXj83e71669031957[] = {
/* columns rows colors chars-per-pixel */
"32 32 7 1 ",
"  c None",
". c #060608",
"X c #AC3232",
"o c #DF7126",
"O c #847E87",
"+ c #9BADB7",
"@ c white",
/* pixels */
"                ..              ",
"                ..              ",
"              ..XX....          ",
"              ..XX....          ",
"        ........OOXX..          ",
"        ........OOXX..          ",
"      ..++++++++OOOO..          ",
"      ..++++++++OOOO..          ",
"      ..@@@@@@@@@@++OO..        ",
"      ..@@@@@@@@@@++OO..        ",
"      ..........@@++++..        ",
"      ..........@@++++..        ",
"      ..@@..@@@@@@++++..        ",
"      ..@@..@@@@@@++++..        ",
"      ..@@@@@@++++++OO..        ",
"      ..@@@@@@++++++OO..        ",
"      ..XXooXXXXOOOO..          ",
"      ..XXooXXXXOOOO..          ",
"      ..OOOOOOOOXXXX..          ",
"      ..OOOOOOOOXXXX..          ",
"      ..OOOOOOOOOOOO..XX        ",
"      ..OOOOOOOOOOOO..XX        ",
"      ..++++++++OOOO..XXXX      ",
"      ..++++++++OOOO..XXXX      ",
"        ............XXXXXXXX    ",
"        ............XXXXXXXX    ",
"                                ",
"                                ",
"                                ",
"                                ",
"                                ",
"                                "
};
