/* XPM */
static char *x2_0033_knight_run_anim_f21667990143[] = {
/* columns rows colors chars-per-pixel */
"32 32 8 1 ",
"  c None",
". c #040406",
"X c #060608",
"o c #AC3232",
"O c #DF7126",
"+ c #847E87",
"@ c #9BADB7",
"# c white",
/* pixels */
"                                ",
"                                ",
"              XX                ",
"              XX                ",
"          XXXXooXX              ",
"          XXXXooXX              ",
"          XXoo++XXXXXXXX        ",
"          XXoo++XXXXXXXX        ",
"          XX++++@@@@@@@@XX      ",
"          XX++++@@@@@@@@XX      ",
"        XX++@@##########XX      ",
"        XX++@@##########XX      ",
"        XX@@@@##XXXXXXXXXX      ",
"        XX@@@@##XXXXXXXXXX      ",
"        XX@@@@######XX##XX      ",
"        XX@@@@######XX##XX      ",
"        XX++@@@@@@######XX      ",
"        XX++@@@@@@######XX      ",
"          XX++++ooooOOooXX      ",
"          XX++++ooooOOooXX      ",
"        ooXXoooo++++++++XX      ",
"        ooXXoooo++++++++XX      ",
"    ooooXX++++@@@@@@@@@@XX      ",
"    ooooXX++++@@@@@@@@@@XX      ",
"      ooXXXXXXXXXXXXXX++..      ",
"      ooXXXXXXXXXXXXXX++..      ",
"                      ....      ",
"                      ....      ",
"                                ",
"                                ",
"                                ",
"                                "
};
