/* XPM */
static char *x2_0031_knight_run_anim_f41667990143[] = {
/* columns rows colors chars-per-pixel */
"32 32 7 1 ",
"  c None",
". c #060608",
"X c #AC3232",
"o c #DF7126",
"O c #847E87",
"+ c #9BADB7",
"@ c white",
/* pixels */
"              ..                ",
"              ..                ",
"          ....XX..              ",
"          ....XX..              ",
"          ..XXOO........        ",
"          ..XXOO........        ",
"          ..OOOO++++++++..      ",
"          ..OOOO++++++++..      ",
"        ..OO++@@@@@@@@@@..      ",
"        ..OO++@@@@@@@@@@..      ",
"        ..++++@@..........      ",
"        ..++++@@..........      ",
"        ..++++@@@@@@..@@..      ",
"        ..++++@@@@@@..@@..      ",
"        ..OO++++++@@@@@@..      ",
"        ..OO++++++@@@@@@..      ",
"          ..OOOOXXXXooXX..      ",
"          ..OOOOXXXXooXX..      ",
"          ..XXXXOOOOOOOO..      ",
"          ..XXXXOOOOOOOO..      ",
"        XX..OOOOOOOOOOOO..      ",
"        XX..OOOOOOOOOOOO..      ",
"      XXXX..OOOO++++++++..      ",
"      XXXX..OOOO++++++++..      ",
"    XXXXXXXX............        ",
"    XXXXXXXX............        ",
"                                ",
"                                ",
"                                ",
"                                ",
"                                ",
"                                "
};
