/* XPM */
static char *oie_21124930AtwsiIPA1669031956[] = {
/* columns rows colors chars-per-pixel */
"32 32 9 1 ",
"  c None",
". c #040406",
"X c #060608",
"o c #565258",
"O c #AC3232",
"+ c #DF7126",
"@ c #847E87",
"# c #9BADB7",
"$ c white",
/* pixels */
"                                ",
"                                ",
"                XX              ",
"                XX              ",
"              XXOOXXXX          ",
"              XXOOXXXX          ",
"        XXXXXXXX@@OOXX          ",
"        XXXXXXXX@@OOXX          ",
"      XX########@@@@XX          ",
"      XX########@@@@XX          ",
"      XX$$$$$$$$$$##@@XX        ",
"      XX$$$$$$$$$$##@@XX        ",
"      XXXXXXXXXX$$####XX        ",
"      XXXXXXXXXX$$####XX        ",
"      XX$$XX$$$$$$####XX        ",
"      XX$$XX$$$$$$####XX        ",
"      XX$$$$$$######@@XX        ",
"      XX$$$$$$######@@XX        ",
"      XXOO++OOOO@@@@XX          ",
"      XXOO++OOOO@@@@XX          ",
"      XX@@@@@@@@OOOOXXOOOO      ",
"      XX@@@@@@@@OOOOXXOOOO      ",
"      XX######@@@@@@XXOOOOOO    ",
"      XX######@@@@@@XXOOOOOO    ",
"        XXXXXX@@@@XX            ",
"        XXXXXX@@@@XX            ",
"            ..ooXX              ",
"            ..ooXX              ",
"            ....                ",
"            ....                ",
"                                ",
"                                "
};
