/* XPM */
static char *x2_0023_goblin_idle_anim_f11667990142[] = {
/* columns rows colors chars-per-pixel */
"32 32 6 1 ",
"  c None",
". c #060608",
"X c #683E2C",
"o c #3A5124",
"O c #7E4C35",
"+ c #4B692F",
/* pixels */
"                                ",
"                                ",
"            ..........          ",
"            ..........          ",
"          ..XXOOOOOOXX..        ",
"          ..XXOOOOOOXX..        ",
"    ......XXOOOOOOOOOOXX......  ",
"    ......XXOOOOOOOOOOXX......  ",
"    ..oo++++OOOOOOOOOOOO++oo..  ",
"    ..oo++++OOOOOOOOOOOO++oo..  ",
"      ..oo++OOoooooooooooo..    ",
"      ..oo++OOoooooooooooo..    ",
"      ..XX++XXoooooooooo..      ",
"      ..XX++XXoooooooooo..      ",
"      ..XXoooo++..++++....      ",
"      ..XXoooo++..++++....      ",
"      ..XXXXoo++++++++++..      ",
"      ..XXXXoo++++++++++..      ",
"        ..XXoo++++++++++..      ",
"        ..XXoo++++++++++..      ",
"          ..oo++++++++++..      ",
"          ..oo++++++++++..      ",
"          ..oooo......oo..      ",
"          ..oooo......oo..      ",
"          ..oo..  ..oo..        ",
"          ..oo..  ..oo..        ",
"          ....    ....          ",
"          ....    ....          ",
"                                ",
"                                ",
"                                ",
"                                "
};
