/* XPM */
static char *x2_0019_goblin_idle_anim_f51667990141[] = {
/* columns rows colors chars-per-pixel */
"32 32 6 1 ",
"  c None",
". c #060608",
"X c #683E2C",
"o c #3A5124",
"O c #7E4C35",
"+ c #4B692F",
/* pixels */
"                                ",
"                                ",
"            ..........          ",
"            ..........          ",
"          ..XXOOOOOOXX..        ",
"          ..XXOOOOOOXX..        ",
"        ..XXOOOOOOOOOOXX..      ",
"        ..XXOOOOOOOOOOXX..      ",
"      ..++++OOOOOOOOOOOO++..    ",
"      ..++++OOOOOOOOOOOO++..    ",
"    ..oooo++OOoooooooooooooo..  ",
"    ..oooo++OOoooooooooooooo..  ",
"    ....XX++XXoooooooooo......  ",
"    ....XX++XXoooooooooo......  ",
"      ..XXoooooooooooooo..      ",
"      ..XXoooooooooooooo..      ",
"      ..XXXXoo++..++++....      ",
"      ..XXXXoo++..++++....      ",
"        ..XXoo++++++++++..      ",
"        ..XXoo++++++++++..      ",
"          ..oo++++++++++..      ",
"          ..oo++++++++++..      ",
"          ..oooo......oo..      ",
"          ..oooo......oo..      ",
"          ..oo..  ..oo..        ",
"          ..oo..  ..oo..        ",
"          ....    ....          ",
"          ....    ....          ",
"                                ",
"                                ",
"                                ",
"                                "
};
