/* XPM */
static char *x2_0021_goblin_idle_anim_f31667990141[] = {
/* columns rows colors chars-per-pixel */
"32 32 7 1 ",
"  c None",
". c #040406",
"X c #060608",
"o c #683E2C",
"O c #3A5124",
"+ c #7E4C35",
"@ c #4B692F",
/* pixels */
"                                ",
"                                ",
"                                ",
"                                ",
"            XXXXXXXXXX          ",
"            XXXXXXXXXX          ",
"          XXoo++++++ooXX        ",
"          XXoo++++++ooXX        ",
"    XXXXXXoo++++++++++ooXXXXXX  ",
"    XXXXXXoo++++++++++ooXXXXXX  ",
"    XXOO@@@@++++++++++++@@OOXX  ",
"    XXOO@@@@++++++++++++@@OOXX  ",
"      XXOO@@++OOOOOOOOOOOOXX    ",
"      XXOO@@++OOOOOOOOOOOOXX    ",
"      XXoo@@ooOOOOOOOOOOXX      ",
"      XXoo@@ooOOOOOOOOOOXX      ",
"      XXooOOOO@@XX@@@@XXXX      ",
"      XXooOOOO@@XX@@@@XXXX      ",
"      XXooooOO@@@@@@@@@@XX      ",
"      XXooooOO@@@@@@@@@@XX      ",
"        XXXXOO@@@@@@@@@@XX      ",
"        XXXXOO@@@@@@@@@@XX      ",
"          XXOOOOXXXXXXOOXX      ",
"          XXOOOOXXXXXXOOXX      ",
"          ..OOXX  XXOOXX        ",
"          ..OOXX  XXOOXX        ",
"          XXXX    XXXX          ",
"          XXXX    XXXX          ",
"                                ",
"                                ",
"                                ",
"                                "
};
