/* XPM */
static char *x2_0006_slime_idle_anim_f51667990138[] = {
/* columns rows colors chars-per-pixel */
"32 32 6 1 ",
"  c None",
". c black",
"X c #33703B",
"o c #37773F",
"O c #3E8948",
"+ c #62B76D",
/* pixels */
"                                ",
"                                ",
"                                ",
"                                ",
"                                ",
"                                ",
"                                ",
"                                ",
"          ............          ",
"          ............          ",
"      ....XXOOOOOOOOXX....      ",
"      ....XXOOOOOOOOXX....      ",
"    ..XXXXOOOOOOOOOOOOXXXX..    ",
"    ..XXXXOOOOOOOOOOOOXXXX..    ",
"  ..XXOOOOOOOOOOOOOOOOOOOOXX..  ",
"  ..XXOOOOOOOOOOOOOOOOOOOOXX..  ",
"..XXOOOO++++OOOOOOOOOOOOOOOOXX..",
"..XXOOOO++++OOOOOOOOOOOOOOOOXX..",
"..OOOO++++OOOOOOOOOOOO....OOOO..",
"..OOOO++++OOOOOOOOOOOO....OOOO..",
"..OOoooooooo....oooooo....ooOO..",
"..OOoooooooo....oooooo....ooOO..",
"..XXoooooooo....ooooooooooooXX..",
"..XXoooooooo....ooooooooooooXX..",
"  ..XXXXooooooooooooooooXXXX..  ",
"  ..XXXXooooooooooooooooXXXX..  ",
"    ....XXooooooooooooXX....    ",
"    ....XXooooooooooooXX....    ",
"        ................        ",
"        ................        ",
"                                ",
"                                "
};
