/* XPM */
static char *x2_0113_wall_top_11667995415[] = {
/* columns rows colors chars-per-pixel */
"32 32 5 1 ",
"  c None",
". c #434F65",
"X c #6F7F9F",
"o c #8895AF",
"O c #A6B0C4",
/* pixels */
"                                ",
"                                ",
"                                ",
"                                ",
"                                ",
"                                ",
"                                ",
"                                ",
"                                ",
"                                ",
"                                ",
"                                ",
"                                ",
"                                ",
"                                ",
"                                ",
"          oooooooooooooo        ",
"          oooooooooooooo        ",
"oooooooo  oooooooooooooo  oooooo",
"oooooooo  oooooooooooooo  oooooo",
"oooooooo..oooooooooooooo..oooooo",
"oooooooo..oooooooooooooo..oooooo",
"OOOOOOOO..OOOOOOOOOOOOOO..OOOOOO",
"OOOOOOOO..OOOOOOOOOOOOOO..OOOOOO",
"XXXXXXXX..XXXXXXXXXXXXXX..XXXXXX",
"XXXXXXXX..XXXXXXXXXXXXXX..XXXXXX",
"XXXXXXXX..XXXXXXXXXXXXXX..XXXXXX",
"XXXXXXXX..XXXXXXXXXXXXXX..XXXXXX",
"XXXXXXXX..XXXXXXXXXXXXXX..XXXXXX",
"XXXXXXXX..XXXXXXXXXXXXXX..XXXXXX",
"................................",
"................................"
};
