/* XPM */
static char *x2_0115_wall_side_left_1667995416[] = {
/* columns rows colors chars-per-pixel */
"32 32 4 1 ",
"  c #353E50",
". c #434F65",
"X c #5A6988",
"o c #6F7F9F",
/* pixels */
"              ..                ",
"              ..                ",
"oooooooooooooo..oooooooooooooooo",
"oooooooooooooo..oooooooooooooooo",
"ooXXXXXXXXXXoo..ooXXXXXXXXXXXXoo",
"ooXXXXXXXXXXoo..ooXXXXXXXXXXXXoo",
"        ..              ..      ",
"        ..              ..      ",
"oooooooo..oooooooooooooo..oooooo",
"oooooooo..oooooooooooooo..oooooo",
"ooXXXXoo..ooXXXXXXXXXXoo..ooXXXX",
"ooXXXXoo..ooXXXXXXXXXXoo..ooXXXX",
"XXXXXXXX..XXXXXXXXXXXXXX..XXXXXX",
"XXXXXXXX..XXXXXXXXXXXXXX..XXXXXX",
"              ..                ",
"              ..                ",
"oooooooooooooo..oooooooooooooooo",
"oooooooooooooo..oooooooooooooooo",
"ooXXXXXXXXXXoo..ooXXXXXXXXXXXXoo",
"ooXXXXXXXXXXoo..ooXXXXXXXXXXXXoo",
"XXXXXXXXXXXXXX..XXXXXXXXXXXXXXXX",
"XXXXXXXXXXXXXX..XXXXXXXXXXXXXXXX",
"        ..              ..      ",
"        ..              ..      ",
"oooooooo..oooooooooooooo..oooooo",
"oooooooo..oooooooooooooo..oooooo",
"ooXXXXoo..ooXXXXXXXXXXoo..ooXXXX",
"ooXXXXoo..ooXXXXXXXXXXoo..ooXXXX",
"XXXXXXXX..XXXXXXXXXXXXXX..XXXXXX",
"XXXXXXXX..XXXXXXXXXXXXXX..XXXXXX",
"................................",
"................................"
};
