/* XPM */
static char *x2_0120_wall_bottom_inner_left1667995416[] = {
/* columns rows colors chars-per-pixel */
"32 32 4 1 ",
"  c None",
". c #434F65",
"X c #8895AF",
"o c #A6B0C4",
/* pixels */
"                        XXXXXXoo",
"                        XXXXXXoo",
"                        XXXXXXoo",
"                        XXXXXXoo",
"                        XXXXXXoo",
"                        XXXXXXoo",
"                        XXXXXXoo",
"                        XXXXXXoo",
"                        XXXXXXoo",
"                        XXXXXXoo",
"                        XXXXXXoo",
"                        XXXXXXoo",
"                        ........",
"                        ........",
"                        ..XXXXoo",
"                        ..XXXXoo",
"                        ..XXXXoo",
"                        ..XXXXoo",
"                          XXXXoo",
"                          XXXXoo",
"                          XXXXoo",
"                          XXXXoo",
"                          XXXXXX",
"                          XXXXXX",
"                          ..XXXX",
"                          ..XXXX",
"                          ......",
"                          ......",
"                          ......",
"                          ......",
"                            ....",
"                            ...."
};
