/* XPM */
static char *x2_0114_wall_side_right1667995415[] = {
/* columns rows colors chars-per-pixel */
"32 32 4 1 ",
"  c #353E50",
". c #434F65",
"X c #5A6988",
"o c #6F7F9F",
/* pixels */
"..              ..              ",
"..              ..              ",
"..oooooooooooooo..oooooooooooooo",
"..oooooooooooooo..oooooooooooooo",
"..ooXXXXXXXXXXoo..ooXXXXXXXXXXoo",
"..ooXXXXXXXXXXoo..ooXXXXXXXXXXoo",
"      ..              ..        ",
"      ..              ..        ",
"oooooo..oooooooooooooo..oooooooo",
"oooooo..oooooooooooooo..oooooooo",
"XXXXoo..ooXXXXXXXXXXoo..ooXXXXoo",
"XXXXoo..ooXXXXXXXXXXoo..ooXXXXoo",
"XXXXXX..XXXXXXXXXXXXXX..XXXXXXXX",
"XXXXXX..XXXXXXXXXXXXXX..XXXXXXXX",
"..              ..              ",
"..              ..              ",
"..oooooooooooooo..oooooooooooooo",
"..oooooooooooooo..oooooooooooooo",
"..ooXXXXXXXXXXoo..ooXXXXXXXXXXoo",
"..ooXXXXXXXXXXoo..ooXXXXXXXXXXoo",
"..XXXXXXXXXXXXXX..XXXXXXXXXXXXXX",
"..XXXXXXXXXXXXXX..XXXXXXXXXXXXXX",
"      ..              ..        ",
"      ..              ..        ",
"oooooo..oooooooooooooo..oooooooo",
"oooooo..oooooooooooooo..oooooooo",
"XXXXoo..ooXXXXXXXXXXoo..ooXXXXoo",
"XXXXoo..ooXXXXXXXXXXoo..ooXXXXoo",
"XXXXXX..XXXXXXXXXXXXXX..XXXXXXXX",
"XXXXXX..XXXXXXXXXXXXXX..XXXXXXXX",
"................................",
"................................"
};
