/* XPM */
static char *x2_0109_wall_top_inner_right_21667995414[] = {
/* columns rows colors chars-per-pixel */
"32 32 5 1 ",
"  c None",
". c #434F65",
"X c #6F7F9F",
"o c #8895AF",
"O c #A6B0C4",
/* pixels */
"OOoooooo                        ",
"OOoooooo                        ",
"OOoooooo                        ",
"OOoooooo                        ",
"OOoooooo                        ",
"OOoooooo                        ",
"OOoooooo                        ",
"OOoooooo                        ",
"OOoooooo                        ",
"OOoooooo                        ",
"OOoooooo                        ",
"OOoooooo                        ",
"........                        ",
"........                        ",
"OOoooooooo                      ",
"OOoooooooo                      ",
"OOoooooooo  oooooooooo          ",
"OOoooooooo  oooooooooo          ",
"OOoooooooo  oooooooooo  oooooooo",
"OOoooooooo  oooooooooo  oooooooo",
"OOoooooooo..oooooooooo..oooooooo",
"OOoooooooo..oooooooooo..oooooooo",
"OOOOOOOOOO..OOOOOOOOOO..OOOOOOOO",
"OOOOOOOOOO..OOOOOOOOOO..OOOOOOOO",
"XXXXXXXXXX..XXXXXXXXXX..XXXXXXXX",
"XXXXXXXXXX..XXXXXXXXXX..XXXXXXXX",
"XXXXXXXXXX..XXXXXXXXXX..XXXXXXXX",
"XXXXXXXXXX..XXXXXXXXXX..XXXXXXXX",
"XXXXXXXXXX..XXXXXXXXXX..XXXXXXXX",
"XXXXXXXXXX..XXXXXXXXXX..XXXXXXXX",
"................................",
"................................"
};
