/* XPM */
static char *x2_0119_wall_bottom_inner_right1667995416[] = {
/* columns rows colors chars-per-pixel */
"32 32 4 1 ",
"  c None",
". c #434F65",
"X c #8895AF",
"o c #A6B0C4",
/* pixels */
"ooXXXXXX                        ",
"ooXXXXXX                        ",
"ooXXXXXX                        ",
"ooXXXXXX                        ",
"ooXXXXXX                        ",
"ooXXXXXX                        ",
"ooXXXXXX                        ",
"ooXXXXXX                        ",
"ooXXXXXX                        ",
"ooXXXXXX                        ",
"ooXXXXXX                        ",
"ooXXXXXX                        ",
"........                        ",
"........                        ",
"ooXXXX..                        ",
"ooXXXX..                        ",
"ooXXXX..                        ",
"ooXXXX..                        ",
"ooXXXX                          ",
"ooXXXX                          ",
"ooXXXX                          ",
"ooXXXX                          ",
"XXXXXX                          ",
"XXXXXX                          ",
"XXXX..                          ",
"XXXX..                          ",
"......                          ",
"......                          ",
"......                          ",
"......                          ",
"....                            ",
"....                            "
};
