/* XPM */
static char *x2_0108_wall_top_left1667995414[] = {
/* columns rows colors chars-per-pixel */
"32 32 4 1 ",
"  c None",
". c #434F65",
"X c #8895AF",
"o c #A6B0C4",
/* pixels */
"                        XXXXXXoo",
"                        XXXXXXoo",
"                        XXXXXXoo",
"                        XXXXXXoo",
"                        XXXXXXoo",
"                        XXXXXXoo",
"                        XXXXXXoo",
"                        XXXXXXoo",
"                        XXXXXXoo",
"                        XXXXXXoo",
"                        XXXXXXoo",
"                        XXXXXXoo",
"                        XXXXXXoo",
"                        XXXXXXoo",
"                        XXXXXXoo",
"                        XXXXXXoo",
"                        ........",
"                        ........",
"                        ..XXXXoo",
"                        ..XXXXoo",
"                        ..XXXXoo",
"                        ..XXXXoo",
"                          XXXXoo",
"                          XXXXoo",
"                          XXXXoo",
"                          XXXXoo",
"                          XXXXoo",
"                          XXXXoo",
"                          XXXXoo",
"                          XXXXoo",
"                          ......",
"                          ......"
};
