/* XPM */
static char *x2_0110_wall_top_inner_right1667995414[] = {
/* columns rows colors chars-per-pixel */
"32 32 4 1 ",
"  c None",
". c #434F65",
"X c #8895AF",
"o c #A6B0C4",
/* pixels */
"                                ",
"                                ",
"                                ",
"                                ",
"                                ",
"                                ",
"                                ",
"                                ",
"                                ",
"                                ",
"                                ",
"                                ",
"                                ",
"                                ",
"                                ",
"                                ",
"                                ",
"                                ",
"XXXX                            ",
"XXXX                            ",
"XXXXXX                          ",
"XXXXXX                          ",
"ooXXXX                          ",
"ooXXXX                          ",
"ooXXXX                          ",
"ooXXXX                          ",
"ooXXXX                          ",
"ooXXXX                          ",
"ooXXXX                          ",
"ooXXXX                          ",
"......                          ",
"......                          "
};
