/* XPM */
static char *x2_0121_wall_bottom1667995416[] = {
/* columns rows colors chars-per-pixel */
"32 32 5 1 ",
"  c None",
". c #353F50",
"X c #434F65",
"o c #8895AF",
"O c #A6B0C4",
/* pixels */
"                                ",
"                                ",
"                                ",
"                                ",
"                                ",
"                                ",
"                                ",
"                                ",
"                                ",
"                                ",
"                                ",
"                                ",
"                                ",
"                                ",
"                                ",
"                                ",
"                                ",
"                                ",
"          OOOOOOOOOOOOOO        ",
"          OOOOOOOOOOOOOO        ",
"OOOOOOOO  oooooooooooooo  OOOOOO",
"OOOOOOOO  oooooooooooooo  OOOOOO",
"oooooooo  oooooooooooooo  oooooo",
"oooooooo  oooooooooooooo  oooooo",
"oooooooo  oooooooooooooo  oooooo",
"oooooooo  oooooooooooooo  oooooo",
"XXXXXXXX..XXXXXXXXXXXXXX..XXXXXX",
"XXXXXXXX..XXXXXXXXXXXXXX..XXXXXX",
"XXXXXXXX..XXXXXXXXXXXXXX..XXXXXX",
"XXXXXXXX..XXXXXXXXXXXXXX..XXXXXX",
"XXXXXXXX..XXXXXXXXXXXXXX..XXXXXX",
"XXXXXXXX..XXXXXXXXXXXXXX..XXXXXX"
};
