/* XPM */
static char *x2_0112_wall_top_inner_left1667995415[] = {
/* columns rows colors chars-per-pixel */
"32 32 4 1 ",
"  c None",
". c #434F65",
"X c #8895AF",
"o c #A6B0C4",
/* pixels */
"                                ",
"                                ",
"                                ",
"                                ",
"                                ",
"                                ",
"                                ",
"                                ",
"                                ",
"                                ",
"                                ",
"                                ",
"                                ",
"                                ",
"                                ",
"                                ",
"                                ",
"                                ",
"                            XXXX",
"                            XXXX",
"                          XXXXXX",
"                          XXXXXX",
"                          XXXXoo",
"                          XXXXoo",
"                          XXXXoo",
"                          XXXXoo",
"                          XXXXoo",
"                          XXXXoo",
"                          XXXXoo",
"                          XXXXoo",
"                          ......",
"                          ......"
};
