/* XPM */
static char *x2_0111_wall_top_inner_left_21667995415[] = {
/* columns rows colors chars-per-pixel */
"32 32 5 1 ",
"  c None",
". c #434F65",
"X c #6F7F9F",
"o c #8895AF",
"O c #A6B0C4",
/* pixels */
"                        ooooooOO",
"                        ooooooOO",
"                        ooooooOO",
"                        ooooooOO",
"                        ooooooOO",
"                        ooooooOO",
"                        ooooooOO",
"                        ooooooOO",
"                        ooooooOO",
"                        ooooooOO",
"                        ooooooOO",
"                        ooooooOO",
"                        ........",
"                        ........",
"                      ooooooooOO",
"                      ooooooooOO",
"          oooooooooo  ooooooooOO",
"          oooooooooo  ooooooooOO",
"oooooooo  oooooooooo  ooooooooOO",
"oooooooo  oooooooooo  ooooooooOO",
"oooooooo..oooooooooo..ooooooooOO",
"oooooooo..oooooooooo..ooooooooOO",
"OOOOOOOO..OOOOOOOOOO..OOOOOOOOOO",
"OOOOOOOO..OOOOOOOOOO..OOOOOOOOOO",
"XXXXXXXX..XXXXXXXXXX..XXXXXXXXXX",
"XXXXXXXX..XXXXXXXXXX..XXXXXXXXXX",
"XXXXXXXX..XXXXXXXXXX..XXXXXXXXXX",
"XXXXXXXX..XXXXXXXXXX..XXXXXXXXXX",
"XXXXXXXX..XXXXXXXXXX..XXXXXXXXXX",
"XXXXXXXX..XXXXXXXXXX..XXXXXXXXXX",
"................................",
"................................"
};
