/* XPM */
static char *x2_0125_wall_21667995417[] = {
/* columns rows colors chars-per-pixel */
"32 32 4 1 ",
"  c #353E50",
". c #434F65",
"X c #5A6988",
"o c #6F7F9F",
/* pixels */
"..................              ",
"..................              ",
"..................oooooooooooooo",
"..................oooooooooooooo",
"..................ooXXXXXX..XXoo",
"..................ooXXXXXX..XXoo",
"        ..              ..      ",
"        ..              ..      ",
"oooooooo..oooooooooooooo..oooooo",
"oooooooo..oooooooooooooo..oooooo",
"XXXXXXoo..ooXXXXXXXXXXoo..ooXXXX",
"XXXXXXoo..ooXXXXXXXXXXoo..ooXXXX",
"XXXXXXXX....XXXXXXXXXX....XXXXXX",
"XXXXXXXX....XXXXXXXXXX....XXXXXX",
"..              ................",
"..              ................",
"..oooooooooooooo................",
"..oooooooooooooo................",
"..ooXXXXXXXXXXoo................",
"..ooXXXXXXXXXXoo................",
"..XXXX..XXXXXXXX................",
"..XXXX..XXXXXXXX................",
"        ....            ..      ",
"        ....            ..      ",
"oooooooo..  oooooooooooo..oooooo",
"oooooooo..  oooooooooooo..oooooo",
"XXXXXXoo..ooXXXXXXXXXXoo..ooXXXX",
"XXXXXXoo..ooXXXXXXXXXXoo..ooXXXX",
"XXXXXXXX..XXXXXXXXXXXXXX..XXXXXX",
"XXXXXXXX..XXXXXXXXXXXXXX..XXXXXX",
"................................",
"................................"
};
