/* XPM */
static char *x2_0116_wall_crack1667995415[] = {
/* columns rows colors chars-per-pixel */
"32 32 4 1 ",
"  c #353E50",
". c #434F65",
"X c #5A6988",
"o c #6F7F9F",
/* pixels */
"..              ..              ",
"..              ..              ",
"..oooooo  oooooo..  oooooooooooo",
"..oooooo  oooooo..  oooooooooooo",
"..ooXXXXXX  XXoo..  XXXXXXXXXXoo",
"..ooXXXXXX  XXoo..  XXXXXXXXXXoo",
"        ..              ..      ",
"        ..              ..      ",
"oooooooo..          oooo..oooooo",
"oooooooo..          oooo..oooooo",
"XXXXXXoo..ooXXXXXX  XXoo..ooXXXX",
"XXXXXXoo..ooXXXXXX  XXoo..ooXXXX",
"XXXXXXXX....XXXXXXXX  XX..XXXXXX",
"XXXXXXXX....XXXXXXXX  XX..XXXXXX",
"..              ..              ",
"..              ..              ",
"..oooooooooooo  ..  oooooooooooo",
"..oooooooooooo  ..  oooooooooooo",
"..ooXXXXXXXXXXoo      XXXXXXXXoo",
"..ooXXXXXXXXXXoo      XXXXXXXXoo",
"..XXXX..XXXXXX  ..XX      XXXXXX",
"..XXXX..XXXXXX  ..XX      XXXXXX",
"        ..              ..      ",
"        ..              ..      ",
"oooooooo..oo    oooo  oo..oooooo",
"oooooooo..oo    oooo  oo..oooooo",
"XXXXXXoo..oo  XX  XXXXoo..ooXXXX",
"XXXXXXoo..oo  XX  XXXXoo..ooXXXX",
"XXXXXXXX..  XXXX  XXXXXX..XXXXXX",
"XXXXXXXX..  XXXX  XXXXXX..XXXXXX",
"..........  ....  ..............",
"..........  ....  .............."
};
