/* XPM */
static char *x2_0107_wall_top_right1667995414[] = {
/* columns rows colors chars-per-pixel */
"32 32 4 1 ",
"  c None",
". c #434F65",
"X c #8895AF",
"o c #A6B0C4",
/* pixels */
"ooXXXXXX                        ",
"ooXXXXXX                        ",
"ooXXXXXX                        ",
"ooXXXXXX                        ",
"ooXXXXXX                        ",
"ooXXXXXX                        ",
"ooXXXXXX                        ",
"ooXXXXXX                        ",
"ooXXXXXX                        ",
"ooXXXXXX                        ",
"ooXXXXXX                        ",
"ooXXXXXX                        ",
"ooXXXXXX                        ",
"ooXXXXXX                        ",
"........                        ",
"........                        ",
"ooXXXX..                        ",
"ooXXXX..                        ",
"ooXXXX..                        ",
"ooXXXX..                        ",
"ooXXXX                          ",
"ooXXXX                          ",
"ooXXXX                          ",
"ooXXXX                          ",
"ooXXXX                          ",
"ooXXXX                          ",
"ooXXXX                          ",
"ooXXXX                          ",
"ooXXXX                          ",
"ooXXXX                          ",
"......                          ",
"......                          "
};
