/* XPM */
static char *x2_0076_barrel1667990149[] = {
/* columns rows colors chars-per-pixel */
"32 32 7 1 ",
"  c None",
". c #191919",
"X c #4D3533",
"o c #63413D",
"O c #704844",
"+ c #898989",
"@ c #A4A4A4",
/* pixels */
"          ..........            ",
"          ..........            ",
"        ..++++++++@@..          ",
"        ..++++++++@@..          ",
"      ..++XXooOOOOoo@@..        ",
"      ..++XXooOOOOoo@@..        ",
"    ..++XXooooOOOOoooo@@..      ",
"    ..++XXooooOOOOoooo@@..      ",
"    ..++XXooOOOOOOOOoo@@..      ",
"    ..++XXooOOOOOOOOoo@@..      ",
"    ....++XXoooooooo@@....      ",
"    ....++XXoooooooo@@....      ",
"    ..XXXX++++++++@@oooo..      ",
"    ..XXXX++++++++@@oooo..      ",
"    ..++XXOOOOooOOOOoo@@..      ",
"    ..++XXOOOOooOOOOoo@@..      ",
"    ..XX++OOOOooOOOO@@oo..      ",
"    ..XX++OOOOooOOOO@@oo..      ",
"    ..XXXX++++++++++oooo..      ",
"    ..XXXX++++++++++oooo..      ",
"    ..XXOOOOOOooOOOOoooo..      ",
"    ..XXOOOOOOooOOOOoooo..      ",
"      ..XXOOOOooOOOOoo..        ",
"      ..XXOOOOooOOOOoo..        ",
"        ..oooooooooo..          ",
"        ..oooooooooo..          ",
"          ..........            ",
"          ..........            ",
"                                ",
"                                ",
"                                ",
"                                "
};
