/* XPM */
static char *x2_0065_bookshelf1668515509[] = {
/* columns rows colors chars-per-pixel */
"32 32 18 1 ",
"  c black",
". c #122A2B",
"X c #193C3E",
"o c #3C2A36",
"O c #45283C",
"+ c #4D3533",
"@ c #665224",
"# c #63413D",
"$ c #0D375E",
"% c #2F3751",
"& c #2D7658",
"* c #3A4466",
"= c #704844",
"- c #8A6F30",
"; c #D4404F",
": c #D95763",
"> c #37946E",
", c #124E89",
/* pixels */
"                                ",
"                                ",
"  ++++++================++++++  ",
"  ++++++================++++++  ",
"  ++++====================++++  ",
"  ++++====================++++  ",
"  ++========================++  ",
"  ++========================++  ",
"  ++========================++  ",
"  ++========================++  ",
"  ++++####################++++  ",
"  ++++####################++++  ",
"  ++########################++  ",
"  ++########################++  ",
"  ##&&&&oo;;;;----@@@@%%XX$$##  ",
"  ##&&&&oo;;;;----@@@@%%XX$$##  ",
"  ##>>>>OO::::++----@@**XX,,##  ",
"  ##>>>>OO::::++----@@**XX,,##  ",
"  ##>>>>OO::::++++----**XX,,##  ",
"  ##>>>>OO::::++++----**XX,,##  ",
"  ############################  ",
"  ############################  ",
"  ############################  ",
"  ############################  ",
"  ##$$..%%oo....&&;;;;oo&&&&##  ",
"  ##$$..%%oo....&&;;;;oo&&&&##  ",
"  ##,,XX**OOXXXX>>::::OO>>>>##  ",
"  ##,,XX**OOXXXX>>::::OO>>>>##  ",
"  ++,,XX**OOXXXX>>::::OO>>>>++  ",
"  ++,,XX**OOXXXX>>::::OO>>>>++  ",
"  ++++####################++++  ",
"  ++++####################++++  "
};
