/* XPM */
static char *x2_0064_chest_closed_anim_f01667990148[] = {
/* columns rows colors chars-per-pixel */
"32 32 7 1 ",
"  c None",
". c black",
"X c #4D3533",
"o c #63413D",
"O c #704844",
"+ c #898989",
"@ c #A4A4A4",
/* pixels */
"        ................        ",
"        ................        ",
"    ....OOOOOOOOOOOOOOOO....    ",
"    ....OOOOOOOOOOOOOOOO....    ",
"  ..@@ooOOOOOOOOOOOOOOOOoo++..  ",
"  ..@@ooOOOOOOOOOOOOOOOOoo++..  ",
"..@@@@ooOOOOOOOOOOOOOOOOoo++++..",
"..@@@@ooOOOOOOOOOOOOOOOOoo++++..",
"..@@@@ooOOOOOOOOOOOOOOOOoo++++..",
"..@@@@ooOOOOOOOOOOOOOOOOoo++++..",
"..++++ooOOOOOOOOOOOOOOOOoo@@@@..",
"..++++ooOOOOOOOOOOOOOOOOoo@@@@..",
"..++++ooOOOOOOOOOOOOOOOOoo@@@@..",
"..++++ooOOOOOOOOOOOOOOOOoo@@@@..",
"..++++ooooOOOOOOOOOOOOoooo@@@@..",
"..++++ooooOOOOOOOOOOOOoooo@@@@..",
"..@@@@oooooooo@@@@oooooooo@@@@..",
"..@@@@oooooooo@@@@oooooooo@@@@..",
"..++++++++++@@@@@@@@++++++++++..",
"..++++++++++@@@@@@@@++++++++++..",
"..++++XXXXOO@@....@@OOXXXX++++..",
"..++++XXXXOO@@....@@OOXXXX++++..",
"..++++XXOOOOOO@@@@OOOOOOXX++++..",
"..++++XXOOOOOO@@@@OOOOOOXX++++..",
"..++++XXOOOOOOOOOOOOOOOOXX++++..",
"..++++XXOOOOOOOOOOOOOOOOXX++++..",
"..++++XXOOOOOOOOOOOOOOOOXX++++..",
"..++++XXOOOOOOOOOOOOOOOOXX++++..",
"..++++XXXXOOOOOOOOOOOOXXXX++++..",
"..++++XXXXOOOOOOOOOOOOXXXX++++..",
"  ............................  ",
"  ............................  "
};
