/* XPM */
static char *x2_0054_flag_red1667990146[] = {
/* columns rows colors chars-per-pixel */
"32 32 7 1 ",
"  c None",
". c #783139",
"X c #A3511E",
"o c #DF7834",
"O c #983944",
"+ c #898989",
"@ c #A4A4A4",
/* pixels */
"  @@@@OOooOOOOOOOOOOOOooOO@@@@  ",
"  @@@@OOooOOOOOOOOOOOOooOO@@@@  ",
"  ++++..XX............XX..++++  ",
"  ++++..XX............XX..++++  ",
"      ..XXOOOOOOOOOOOOXX..      ",
"      ..XXOOOOOOOOOOOOXX..      ",
"      ..ooOOOOOOOOOOOOoo..      ",
"      ..ooOOOOOOOOOOOOoo..      ",
"      OOooOOOOOOOOOOOOooOO      ",
"      OOooOOOOOOOOOOOOooOO      ",
"      OOooOOOOOOOOOOOOooOO      ",
"      OOooOOOOOOOOOOOOooOO      ",
"      OOooOOOOOOOOOOOOooOO      ",
"      OOooOOOOOOOOOOOOooOO      ",
"      OOooOOOO  OOOOOOooOO      ",
"      OOooOOOO  OOOOOOooOO      ",
"      OOooOOOOOOOOOOOOooOO      ",
"      OOooOOOOOOOOOOOOooOO      ",
"      OOooOOOOOOOOOOOOooOO      ",
"      OOooOOOOOOOOOOOOooOO      ",
"        ooOOOO  OO  OOooOO      ",
"        ooOOOO  OO  OOooOO      ",
"        ooOOOOOOOO  OOooOO      ",
"        ooOOOOOOOO  OOooOO      ",
"        ooOO  OOOO  OOooOO      ",
"        ooOO  OOOO  OOooOO      ",
"        ooOO  OOOO  OOoo        ",
"        ooOO  OOOO  OOoo        ",
"                    OOoo        ",
"                    OOoo        ",
"                                ",
"                                "
};
