/* XPM */
static char *x2_0055_flag_green1667990146[] = {
/* columns rows colors chars-per-pixel */
"32 32 7 1 ",
"  c None",
". c #783139",
"X c #3C5426",
"o c #4B692F",
"O c #983944",
"+ c #898989",
"@ c #A4A4A4",
/* pixels */
"  @@@@ooOOooooooooooooOOoo@@@@  ",
"  @@@@ooOOooooooooooooOOoo@@@@  ",
"  ++++XX..XXXXXXXXXXXX..XX++++  ",
"  ++++XX..XXXXXXXXXXXX..XX++++  ",
"      XX..oooooooooooo..XX      ",
"      XX..oooooooooooo..XX      ",
"      XXOOooooooooooooOOXX      ",
"      XXOOooooooooooooOOXX      ",
"      ooOOooooooooooooOOoo      ",
"      ooOOooooooooooooOOoo      ",
"      ooOOooooooooooooOOoo      ",
"      ooOOooooooooooooOOoo      ",
"      ooOOooooooooooooOOoo      ",
"      ooOOooooooooooooOOoo      ",
"      ooOOooooooooooooOOoo      ",
"      ooOOooooooooooooOOoo      ",
"      ooOOooooooooooooOOoo      ",
"      ooOOooooooooooooOOoo      ",
"      ooOOooooooooooooOOoo      ",
"      ooOOooooooooooooOOoo      ",
"      ooOOoooooo  ooooOOoo      ",
"      ooOOoooooo  ooooOOoo      ",
"      ooOOoo    oooo  OO        ",
"      ooOOoo    oooo  OO        ",
"      ooOOoooo  oo    OO        ",
"      ooOOoooo  oo    OO        ",
"        OOoooooooo              ",
"        OOoooooooo              ",
"        OO  oooooo              ",
"        OO  oooooo              ",
"                                ",
"                                "
};
