/* XPM */
static char *x2_0049_prisoner1667990145[] = {
/* columns rows colors chars-per-pixel */
"32 32 5 1 ",
"  c None",
". c gray46",
"X c #A4A4A4",
"o c gray71",
"O c gray81",
/* pixels */
"  XXOOXX                XXOOXX  ",
"  XXOOXX                XXOOXX  ",
"  XXXXXX                XXXXXX  ",
"  XXXXXX                XXXXXX  ",
"    OOOO                OOOO    ",
"    OOOO                OOOO    ",
"        OO  ooOOOOoo  OO        ",
"        OO  ooOOOOoo  OO        ",
"        oo  OOOOOOOO  oo        ",
"        oo  OOOOOOOO  oo        ",
"          ooOO..OO..oo          ",
"          ooOO..OO..oo          ",
"          OO  OOOOOOOO          ",
"          OO  OOOOOOOO          ",
"            OOOOOOOO            ",
"            OOOOOOOO            ",
"              ooOO              ",
"              ooOO              ",
"            ooOOOOoo            ",
"            ooOOOOoo            ",
"              OOOO              ",
"              OOOO              ",
"            ooOOOOoo            ",
"            ooOOOOoo            ",
"            oo    oo            ",
"            oo    oo            ",
"            oo    oo            ",
"            oo    oo            ",
"            oo    oo            ",
"            oo    oo            ",
"          oo    oo              ",
"          oo    oo              "
};
