/* XPM */
static char *x2_0048_table1667990145[] = {
/* columns rows colors chars-per-pixel */
"32 32 11 1 ",
"  c None",
". c black",
"X c #5C322D",
"o c #6D3B36",
"O c #783139",
"+ c #A3511E",
"@ c #DF7834",
"# c #983944",
"$ c #9A544C",
"% c gray55",
"& c gray68",
/* pixels */
"    ........................    ",
"    ........................    ",
"  ..oooooooooooooooooooooooo..  ",
"  ..oooooooooooooooooooooooo..  ",
"..oo##########%%%%&&########oo..",
"..oo##########%%%%&&########oo..",
"..OO@@&&&&@@@@%%&&OO&&@@@@@@OO..",
"..OO@@&&&&@@@@%%&&OO&&@@@@@@OO..",
"..++%%&&&&&&OO%%&&OO&&######++..",
"..++%%&&&&&&OO%%&&OO&&######++..",
"..OO%%&&&&&&OO%%&&&&OO######OO..",
"..OO%%&&&&&&OO%%&&&&OO######OO..",
"..OOOO%%&&OOOOOOOOOOOO&&&&##OO..",
"..OOOO%%&&OOOOOOOOOOOO&&&&##OO..",
"..OO##OOOO########OO%%&&&&&&OO..",
"..OO##OOOO########OO%%&&&&&&OO..",
"..OO@@@@@@@@@@@@@@++%%&&&&&&OO..",
"..OO@@@@@@@@@@@@@@++%%&&&&&&OO..",
"..++################OO%%&&OO++..",
"..++################OO%%&&OO++..",
"..OOooooooooooooooooooooooooOO..",
"..OOooooooooooooooooooooooooOO..",
"..oo$$$$$$$$$$$$$$$$$$$$$$$$oo..",
"..oo$$$$$$$$$$$$$$$$$$$$$$$$oo..",
"..$$oooooooooooooooooooooooo$$..",
"..$$oooooooooooooooooooooooo$$..",
"  ....XXXX............XXXX....  ",
"  ....XXXX............XXXX....  ",
"    ..XXoo..        ..XXoo..    ",
"    ..XXoo..        ..XXoo..    ",
"                                ",
"                                "
};
