/* XPM */
static char *x2_0000_table_21668004020[] = {
/* columns rows colors chars-per-pixel */
"64 32 11 1 ",
"  c None",
". c black",
"X c #5C322D",
"o c #6D3B36",
"O c #783139",
"+ c #3C5426",
"@ c #4B692F",
"# c #983944",
"$ c #9A544C",
"% c gray55",
"& c gray68",
/* pixels */
"    ........................................................    ",
"    ........................................................    ",
"  ..oooooooooooooooooooooooooooooooooooooooooooooooooooooooo..  ",
"  ..oooooooooooooooooooooooooooooooooooooooooooooooooooooooo..  ",
"..oo@@@@@@@@@@@@@@@@@@@@@@@@@@@@@@@@@@@@@@@@@@%%%%&&@@@@@@@@oo..",
"..oo@@@@@@@@@@@@@@@@@@@@@@@@@@@@@@@@@@@@@@@@@@%%%%&&@@@@@@@@oo..",
"..++##&&&&####################################%%&&OO&&######++..",
"..++##&&&&####################################%%&&OO&&######++..",
"..OO%%&&&&&&@@@@@@@@@@@@@@@@@@@@@@@@@@@@@@@@++%%&&++&&@@@@@@OO..",
"..OO%%&&&&&&@@@@@@@@@@@@@@@@@@@@@@@@@@@@@@@@++%%&&++&&@@@@@@OO..",
"..++%%&&&&&&@@@@@@@@@@&&&&@@@@@@@@@@@@@@@@@@++%%&&&&++@@@@@@++..",
"..++%%&&&&&&@@@@@@@@@@&&&&@@@@@@@@@@@@@@@@@@++%%&&&&++@@@@@@++..",
"..++++%%&&++@@@@@@++%%&&&&&&@@@@@@@@@@@@@@@@@@++++++++&&&&@@++..",
"..++++%%&&++@@@@@@++%%&&&&&&@@@@@@@@@@@@@@@@@@++++++++&&&&@@++..",
"..++@@++++@@@@@@@@++%%&&&&&&@@@@@@@@@@@@@@@@@@@@@@++%%&&&&&&++..",
"..++@@++++@@@@@@@@++%%&&&&&&@@@@@@@@@@@@@@@@@@@@@@++%%&&&&&&++..",
"..++################OO%%&&OO######################OO%%&&&&&&++..",
"..++################OO%%&&OO######################OO%%&&&&&&++..",
"..OO@@@@@@@@@@@@@@@@@@++++@@@@@@@@@@@@@@@@@@@@@@@@@@++%%&&++OO..",
"..OO@@@@@@@@@@@@@@@@@@++++@@@@@@@@@@@@@@@@@@@@@@@@@@++%%&&++OO..",
"..++oooooooooooooooooooooooooooooooooooooooooooooooooooooooo++..",
"..++oooooooooooooooooooooooooooooooooooooooooooooooooooooooo++..",
"..oo$$$$$$$$$$$$$$$$$$$$$$$$$$$$$$$$$$$$$$$$$$$$$$$$$$$$$$$$oo..",
"..oo$$$$$$$$$$$$$$$$$$$$$$$$$$$$$$$$$$$$$$$$$$$$$$$$$$$$$$$$oo..",
"..$$oooooooooooooooooooooooooooooooooooooooooooooooooooooooo$$..",
"..$$oooooooooooooooooooooooooooooooooooooooooooooooooooooooo$$..",
"  ....XXXX............................................XXXX....  ",
"  ....XXXX............................................XXXX....  ",
"    ..XXoo..                                        ..XXoo..    ",
"    ..XXoo..                                        ..XXoo..    ",
"                                                                ",
"                                                                "
};
