/* XPM */
static char *x2_0042_torch_anim_f51667990145[] = {
/* columns rows colors chars-per-pixel */
"32 32 6 1 ",
"  c None",
". c #8C502F",
"X c #9A5836",
"o c #B86944",
"O c #F78028",
"+ c #FDCD53",
/* pixels */
"                                ",
"                                ",
"                                ",
"                                ",
"                                ",
"                                ",
"                                ",
"                                ",
"                                ",
"                                ",
"            OO  OO              ",
"            OO  OO              ",
"              OOOO              ",
"              OOOO              ",
"            OOOO++              ",
"            OOOO++              ",
"              ++++              ",
"              ++++              ",
"            ..XXoooo            ",
"            ..XXoooo            ",
"              ....              ",
"              ....              ",
"              XXXX              ",
"              XXXX              ",
"                                ",
"                                ",
"                                ",
"                                ",
"                                ",
"                                ",
"                                ",
"                                "
};
