/* XPM */
static char *x2_0045_torch_anim_f21667990145[] = {
/* columns rows colors chars-per-pixel */
"32 32 6 1 ",
"  c None",
". c #8C502F",
"X c #9A5836",
"o c #B86944",
"O c #F78028",
"+ c #FDCD53",
/* pixels */
"                                ",
"                                ",
"                                ",
"                                ",
"                                ",
"                                ",
"                                ",
"                                ",
"                                ",
"                                ",
"              OOOO              ",
"              OOOO              ",
"              OOOO              ",
"              OOOO              ",
"              ++OO              ",
"              ++OO              ",
"              ++++              ",
"              ++++              ",
"            ..XXoooo            ",
"            ..XXoooo            ",
"              ....              ",
"              ....              ",
"              XXXX              ",
"              XXXX              ",
"                                ",
"                                ",
"                                ",
"                                ",
"                                ",
"                                ",
"                                ",
"                                "
};
