/* XPM */
static char *x2_0046_torch_anim_f11667990145[] = {
/* columns rows colors chars-per-pixel */
"32 32 7 1 ",
"  c None",
". c #8C502F",
"X c #9A5836",
"o c #F77622",
"O c #B86944",
"+ c #F78028",
"@ c #FDCD53",
/* pixels */
"                                ",
"                                ",
"                                ",
"                                ",
"                                ",
"                                ",
"                oo              ",
"                oo              ",
"                                ",
"                                ",
"              ++                ",
"              ++                ",
"              ++++++            ",
"              ++++++            ",
"            ++++++@@            ",
"            ++++++@@            ",
"              @@@@              ",
"              @@@@              ",
"            ..XXOOOO            ",
"            ..XXOOOO            ",
"              ....              ",
"              ....              ",
"              XXXX              ",
"              XXXX              ",
"                                ",
"                                ",
"                                ",
"                                ",
"                                ",
"                                ",
"                                ",
"                                "
};
