/* XPM */
static char *x2_0077_bag_coins1667990149[] = {
/* columns rows colors chars-per-pixel */
"32 32 6 1 ",
"  c None",
". c black",
"X c #663931",
"o c #D18C47",
"O c #D9A066",
"+ c #DDD540",
/* pixels */
"                                ",
"                                ",
"                                ",
"                                ",
"                                ",
"                                ",
"                                ",
"                                ",
"                                ",
"                                ",
"                                ",
"                                ",
"              ......            ",
"              ......            ",
"            ..XXooOO..          ",
"            ..XXooOO..          ",
"          ..ooooXX..            ",
"          ..ooooXX..            ",
"      ....++..OOOOOO....        ",
"      ....++..OOOOOO....        ",
"    ..++....ooOOOOoo..++..      ",
"    ..++....ooOOOOoo..++..      ",
"  ..++..++....oooo++....        ",
"  ..++..++....oooo++....        ",
"    ................            ",
"    ................            ",
"                                ",
"                                ",
"                                ",
"                                ",
"                                ",
"                                "
};
