/* XPM */
static char *x2_0092_floor_side31667996322[] = {
/* columns rows colors chars-per-pixel */
"32 32 6 1 ",
"  c #59413E",
". c #514047",
"X c #77514C",
"o c #8D5D57",
"O c #966F5F",
"+ c #AA8779",
/* pixels */
"..OOOOOOOOOO......XXXXXXXXXX....",
"..OOOOOOOOOO......XXXXXXXXXX....",
"OOOOOOOOOOOO++..XXXXXXXXXXXXoo..",
"OOOOOOOOOOOO++..XXXXXXXXXXXXoo..",
"OOOOOOOOOOOO++..XXXXXXXXXXXXoo..",
"OOOOOOOOOOOO++..XXXXXXXXXXXXoo..",
"OOOOOOOOOOOO++..XXXXXXXXXXXXoo..",
"OOOOOOOOOOOO++..XXXXXXXXXXXXoo..",
"OOOOOOOOOOOO++..XXXXXXXXXXXXoo..",
"OOOOOOOOOOOO++..XXXXXXXXXXXXoo..",
"OOOOOOOOOO++++..XXXXXXXXXXoooo..",
"OOOOOOOOOO++++..XXXXXXXXXXoooo..",
"  ++++++++++  ..  oooooooooo  ..",
"  ++++++++++  ..  oooooooooo  ..",
"..          ......          ....",
"..          ......          ....",
"..OOOOOOOOOO......XXXXXXXXXX....",
"..OOOOOOOOOO......XXXXXXXXXX....",
"OOOOOOOOOOOO++..XXXXXXXXXXXXoo..",
"OOOOOOOOOOOO++..XXXXXXXXXXXXoo..",
"OOOOOOOOOOOO++..XXXXXXXXXXXXoo..",
"OOOOOOOOOOOO++..XXXXXXXXXXXXoo..",
"OOOOOOOOOOOO++..XXXXXXXXXXXXoo..",
"OOOOOOOOOOOO++..XXXXXXXXXXXXoo..",
"OOOOOOOOOOOO++..XXXXXXXXXXXXoo..",
"OOOOOOOOOOOO++..XXXXXXXXXXXXoo..",
"OOOOOOOOOO++++..XXXXXXXXXXoooo..",
"OOOOOOOOOO++++..XXXXXXXXXXoooo..",
"  ++++++++++  ..  oooooooooo  ..",
"  ++++++++++  ..  oooooooooo  ..",
"..          ......          ....",
"..          ......          ...."
};
