/* XPM */
static char *x2_0094_floor_side_right1667996322[] = {
/* columns rows colors chars-per-pixel */
"32 32 6 1 ",
"  c #59413E",
". c #514047",
"X c #77514C",
"o c #8D5D57",
"O c #966F5F",
"+ c #AA8779",
/* pixels */
"..OOOOOOOOOO......XXXXXXXXXX....",
"..OOOOOOOOOO......XXXXXXXXXX....",
"OOOOOOOOOOOO++..XXXXXXXXXXXXoo..",
"OOOOOOOOOOOO++..XXXXXXXXXXXXoo..",
"OOOOOOOOOOOO++..XXXXXXXXXXXXoo..",
"OOOOOOOOOOOO++..XXXXXXXXXXXXoo..",
"OOOOOOOOOOOO++..XXXXXXXXXXXXoo..",
"OOOOOOOOOOOO++..XXXXXXXXXXXXoo..",
"OOOOOOOOOOOO++..XXXXXXXXXXXXoo..",
"OOOOOOOOOOOO++..XXXXXXXXXXXXoo..",
"OOOOOOOOOO++++..XXXXXXXXXXoooo..",
"OOOOOOOOOO++++..XXXXXXXXXXoooo..",
"  ++++++++++  ..  oooooooooo  ..",
"  ++++++++++  ..  oooooooooo  ..",
"..          ......          ....",
"..          ......          ....",
"..XXXXXXXXXX......XXXXXXXXXX....",
"..XXXXXXXXXX......XXXXXXXXXX....",
"XXXXXXXXXXXXoo..XXXXXXXXXXXXoo..",
"XXXXXXXXXXXXoo..XXXXXXXXXXXXoo..",
"XXXXXXXXXXXXoo..XXXXXXXXXXXXoo..",
"XXXXXXXXXXXXoo..XXXXXXXXXXXXoo..",
"XXXXXXXXXXXXoo..XXXXXXXXXXXXoo..",
"XXXXXXXXXXXXoo..XXXXXXXXXXXXoo..",
"XXXXXXXXXXXXoo..XXXXXXXXXXXXoo..",
"XXXXXXXXXXXXoo..XXXXXXXXXXXXoo..",
"XXXXXXXXXXoooo..XXXXXXXXXXoooo..",
"XXXXXXXXXXoooo..XXXXXXXXXXoooo..",
"  oooooooooo  ..  oooooooooo  ..",
"  oooooooooo  ..  oooooooooo  ..",
"..          ......          ....",
"..          ......          ...."
};
