/* XPM */
static char *x2_0099_floor_81667996323[] = {
/* columns rows colors chars-per-pixel */
"32 32 4 1 ",
"  c #59413E",
". c #514047",
"X c #77514C",
"o c #8D5D57",
/* pixels */
"........................XXXXXX..",
"........................XXXXXX..",
"....................XXXXXXXXXXXX",
"....................XXXXXXXXXXXX",
"..........XXXX....XXXXXXXXXXXXoo",
"..........XXXX....XXXXXXXXXXXXoo",
"..........XXXX....XXXXXXXXXXXXoo",
"..........XXXX....XXXXXXXXXXXXoo",
"....XX............XXXXXXXXXXoooo",
"....XX............XXXXXXXXXXoooo",
"....XX............  oooooooooo  ",
"....XX............  oooooooooo  ",
"..........XX........          ..",
"..........XX........          ..",
"................................",
"................................",
"......................XXXX......",
"......................XXXX......",
"......................XXXXXXXXoo",
"......................XXXXXXXXoo",
"......XXXX..........XXXXXXXXXXoo",
"......XXXX..........XXXXXXXXXXoo",
"......XXXX..........XXXXXXXXXXoo",
"......XXXX..........XXXXXXXXXXoo",
"......XXXX..........XXXXXXXXoooo",
"......XXXX..........XXXXXXXXoooo",
"....................  oooooooo  ",
"....................  oooooooo  ",
"......................        ..",
"......................        ..",
"................................",
"................................"
};
