/* XPM */
static char *x2_0090_floor_side51667996322[] = {
/* columns rows colors chars-per-pixel */
"32 32 6 1 ",
"  c #59413E",
". c #514047",
"X c #77514C",
"o c #8D5D57",
"O c #966F5F",
"+ c #AA8779",
/* pixels */
"..OOOOOOOOOO......OOOOOOOOOO....",
"..OOOOOOOOOO......OOOOOOOOOO....",
"OOOOOOOOOOOO++..OOOOOOOOOOOO++..",
"OOOOOOOOOOOO++..OOOOOOOOOOOO++..",
"OOOOOOOOOOOO++..OOOOOOOOOOOO++..",
"OOOOOOOOOOOO++..OOOOOOOOOOOO++..",
"OOOOOOOOOOOO++..OOOOOOOOOOOO++..",
"OOOOOOOOOOOO++..OOOOOOOOOOOO++..",
"OOOOOOOOOOOO++..OOOOOOOOOOOO++..",
"OOOOOOOOOOOO++..OOOOOOOOOOOO++..",
"OOOOOOOOOO++++..OOOOOOOOOO++++..",
"OOOOOOOOOO++++..OOOOOOOOOO++++..",
"  ++++++++++  ..  ++++++++++  ..",
"  ++++++++++  ..  ++++++++++  ..",
"..          ......          ....",
"..          ......          ....",
"..XXXXXXXXXX......OOOOOOOOOO....",
"..XXXXXXXXXX......OOOOOOOOOO....",
"XXXXXXXXXXXXoo..OOOOOOOOOOOO++..",
"XXXXXXXXXXXXoo..OOOOOOOOOOOO++..",
"XXXXXXXXXXXXoo..OOOOOOOOOOOO++..",
"XXXXXXXXXXXXoo..OOOOOOOOOOOO++..",
"XXXXXXXXXXXXoo..OOOOOOOOOOOO++..",
"XXXXXXXXXXXXoo..OOOOOOOOOOOO++..",
"XXXXXXXXXXXXoo..OOOOOOOOOOOO++..",
"XXXXXXXXXXXXoo..OOOOOOOOOOOO++..",
"XXXXXXXXXXoooo..OOOOOOOOOO++++..",
"XXXXXXXXXXoooo..OOOOOOOOOO++++..",
"  oooooooooo  ..  ++++++++++  ..",
"  oooooooooo  ..  ++++++++++  ..",
"..          ......          ....",
"..          ......          ...."
};
