/* XPM */
static char *x2_0096_floor_side1667996323[] = {
/* columns rows colors chars-per-pixel */
"32 32 6 1 ",
"  c #5D4744",
". c #55464C",
"X c #785551",
"o c #8B605B",
"O c #947062",
"+ c #A68679",
/* pixels */
"..OOOOOOOOOO......OOOOOOOOOO....",
"..OOOOOOOOOO......OOOOOOOOOO....",
"OOOOOOOOOOOO++..OOOOOOOOOOOO++..",
"OOOOOOOOOOOO++..OOOOOOOOOOOO++..",
"OOOOOOOOOOOO++..OOOOOOOOOOOO++..",
"OOOOOOOOOOOO++..OOOOOOOOOOOO++..",
"OOOOOOOOOOOO++..OOOOOOOOOOOO++..",
"OOOOOOOOOOOO++..OOOOOOOOOOOO++..",
"OOOOOOOOOOOO++..OOOOOOOOOOOO++..",
"OOOOOOOOOOOO++..OOOOOOOOOOOO++..",
"OOOOOOOOOO++++..OOOOOOOOOO++++..",
"OOOOOOOOOO++++..OOOOOOOOOO++++..",
"  ++++++++++  ..  ++++++++++  ..",
"  ++++++++++  ..  ++++++++++  ..",
"..          ......          ....",
"..          ......          ....",
"..XXXXXXXXXX......XXXXXXXXXX....",
"..XXXXXXXXXX......XXXXXXXXXX....",
"XXXXXXXXXXXXoo..XXXXXXXXXXXXoo..",
"XXXXXXXXXXXXoo..XXXXXXXXXXXXoo..",
"XXXXXXXXXXXXoo..XXXXXXXXXXXXoo..",
"XXXXXXXXXXXXoo..XXXXXXXXXXXXoo..",
"XXXXXXXXXXXXoo..XXXXXXXXXXXXoo..",
"XXXXXXXXXXXXoo..XXXXXXXXXXXXoo..",
"XXXXXXXXXXXXoo..XXXXXXXXXXXXoo..",
"XXXXXXXXXXXXoo..XXXXXXXXXXXXoo..",
"XXXXXXXXXXoooo..XXXXXXXXXXoooo..",
"XXXXXXXXXXoooo..XXXXXXXXXXoooo..",
"  oooooooooo  ..  oooooooooo  ..",
"  oooooooooo  ..  oooooooooo  ..",
"..          ......          ....",
"..          ......          ...."
};
