/* XPM */
static char *x2_0101_floor_61667996323[] = {
/* columns rows colors chars-per-pixel */
"32 32 4 1 ",
"  c #59413E",
". c #514047",
"X c #77514C",
"o c #8D5D57",
/* pixels */
"................................",
"................................",
"................................",
"................................",
"........................XXXX....",
"........................XXXX....",
"......XXXX........XX....XXXX....",
"......XXXX........XX....XXXX....",
"....XXXXXXXX....................",
"....XXXXXXXX....................",
"....XXXXXXXX....................",
"....XXXXXXXX....................",
"......XXXXXX........XXXX........",
"......XXXXXX........XXXX........",
"....................XXXX........",
"....................XXXX........",
"................................",
"................................",
"..XXXXXX................XXXX....",
"..XXXXXX................XXXX....",
"XXXXXXXXXXXX........XXXXXXXXoo..",
"XXXXXXXXXXXX........XXXXXXXXoo..",
"XXXXXXXXXXXXoo....XXXXXXXXXXoo..",
"XXXXXXXXXXXXoo....XXXXXXXXXXoo..",
"XXXXXXXXXXXXoo....XXXXXXXXXXoo..",
"XXXXXXXXXXXXoo....XXXXXXXXXXoo..",
"XXXXXXXXXXoooo....XXXXXXXXoooo..",
"XXXXXXXXXXoooo....XXXXXXXXoooo..",
"  oooooooooo  ....  oooooooo  ..",
"  oooooooooo  ....  oooooooo  ..",
"..          ........        ....",
"..          ........        ...."
};
