/* XPM */
static char *x2_0105_floor_21667996324[] = {
/* columns rows colors chars-per-pixel */
"32 32 4 1 ",
"  c #59413E",
". c #514047",
"X c #77514C",
"o c #8D5D57",
/* pixels */
"..XXXXXXXXXXXXXXXXXXXXXXXXXX....",
"..XXXXXXXXXXXXXXXXXXXXXXXXXX....",
"XXXXXXXXXXXXXXXXXXXXXXXXXXXXoo..",
"XXXXXXXXXXXXXXXXXXXXXXXXXXXXoo..",
"XXXXXXXXXXXXXXXXXXXXXXXXXXXXoo..",
"XXXXXXXXXXXXXXXXXXXXXXXXXXXXoo..",
"XXXXXXXXXXXXXXXXXXXXXXXXXXXXoo..",
"XXXXXXXXXXXXXXXXXXXXXXXXXXXXoo..",
"XXXXXXXXXXXXXXXXXXXXXXXXXXXXoo..",
"XXXXXXXXXXXXXXXXXXXXXXXXXXXXoo..",
"XXXXXXXXXXXXXXXXXXXXXXXXXXXXoo..",
"XXXXXXXXXXXXXXXXXXXXXXXXXXXXoo..",
"XXXXXXXXXXXXXXXXXXXXXXXXXXXXoo..",
"XXXXXXXXXXXXXXXXXXXXXXXXXXXXoo..",
"XXXXXXXXXXXXXXXXXXXXXXXXXXXXoo..",
"XXXXXXXXXXXXXXXXXXXXXXXXXXXXoo..",
"XXXXXXXXXXXXXXXXXXXXXXXXXXXXoo..",
"XXXXXXXXXXXXXXXXXXXXXXXXXXXXoo..",
"XXXXXXXXXXXXXXXXXXXXXXXXXXXXoo..",
"XXXXXXXXXXXXXXXXXXXXXXXXXXXXoo..",
"XXXXXXXXXXXXXXXXXXXXXXXXXXXXoo..",
"XXXXXXXXXXXXXXXXXXXXXXXXXXXXoo..",
"XXXXXXXXXXXXXXXXXXXXXXXXXXXXoo..",
"XXXXXXXXXXXXXXXXXXXXXXXXXXXXoo..",
"XXXXXXXXXXXXXXXXXXXXXXXXXXXXoo..",
"XXXXXXXXXXXXXXXXXXXXXXXXXXXXoo..",
"XXXXXXXXXXXXXXXXXXXXXXXXXXoooo..",
"XXXXXXXXXXXXXXXXXXXXXXXXXXoooo..",
"  oooooooooooooooooooooooooo  ..",
"  oooooooooooooooooooooooooo  ..",
"..                          ....",
"..                          ...."
};
