/* XPM */
static char *x2_0095_floor_side_left1667996323[] = {
/* columns rows colors chars-per-pixel */
"32 32 6 1 ",
"  c #59413E",
". c #514047",
"X c #77514C",
"o c #8D5D57",
"O c #966F5F",
"+ c #AA8779",
/* pixels */
"..XXXXXXXXXX......OOOOOOOOOO....",
"..XXXXXXXXXX......OOOOOOOOOO....",
"XXXXXXXXXXXXoo..OOOOOOOOOOOO++..",
"XXXXXXXXXXXXoo..OOOOOOOOOOOO++..",
"XXXXXXXXXXXXoo..OOOOOOOOOOOO++..",
"XXXXXXXXXXXXoo..OOOOOOOOOOOO++..",
"XXXXXXXXXXXXoo..OOOOOOOOOOOO++..",
"XXXXXXXXXXXXoo..OOOOOOOOOOOO++..",
"XXXXXXXXXXXXoo..OOOOOOOOOOOO++..",
"XXXXXXXXXXXXoo..OOOOOOOOOOOO++..",
"XXXXXXXXXXoooo..OOOOOOOOOO++++..",
"XXXXXXXXXXoooo..OOOOOOOOOO++++..",
"  oooooooooo  ..  ++++++++++  ..",
"  oooooooooo  ..  ++++++++++  ..",
"..          ......          ....",
"..          ......          ....",
"..XXXXXXXXXX......XXXXXXXXXX....",
"..XXXXXXXXXX......XXXXXXXXXX....",
"XXXXXXXXXXXXoo..XXXXXXXXXXXXoo..",
"XXXXXXXXXXXXoo..XXXXXXXXXXXXoo..",
"XXXXXXXXXXXXoo..XXXXXXXXXXXXoo..",
"XXXXXXXXXXXXoo..XXXXXXXXXXXXoo..",
"XXXXXXXXXXXXoo..XXXXXXXXXXXXoo..",
"XXXXXXXXXXXXoo..XXXXXXXXXXXXoo..",
"XXXXXXXXXXXXoo..XXXXXXXXXXXXoo..",
"XXXXXXXXXXXXoo..XXXXXXXXXXXXoo..",
"XXXXXXXXXXoooo..XXXXXXXXXXoooo..",
"XXXXXXXXXXoooo..XXXXXXXXXXoooo..",
"  oooooooooo  ..  oooooooooo  ..",
"  oooooooooo  ..  oooooooooo  ..",
"..          ......          ....",
"..          ......          ...."
};
