/* XPM */
static char *x2_0102_floor_51667996324[] = {
/* columns rows colors chars-per-pixel */
"32 32 2 1 ",
"  c #4C3941",
". c #514047",
/* pixels */
"........    ......    ..........",
"........    ......    ..........",
"..................    ..........",
"..................    ..........",
"................................",
"................................",
"................................",
"................................",
"  ................  ............",
"  ................  ............",
"  ..............................",
"  ..............................",
"................................",
"................................",
"..........................    ..",
"..........................    ..",
"..    ....................    ..",
"..    ....................    ..",
"..    ..    ....................",
"..    ..    ....................",
"........    ....................",
"........    ....................",
"................................",
"................................",
"....    ........................",
"....    ........................",
"....    ............  ....    ..",
"....    ............  ....    ..",
"..........................    ..",
"..........................    ..",
"................................",
"................................"
};
