/* XPM */
static char *x2_0006_door_anim_opening_f91667990138[] = {
/* columns rows colors chars-per-pixel */
"64 64 7 1 ",
"  c None",
". c #412320",
"X c #59302C",
"o c #434F65",
"O c #6F7F9F",
"+ c #8895AF",
"@ c #A6B0C4",
/* pixels */
"                                                                ",
"                                                                ",
"                                                                ",
"                                                                ",
"                                                                ",
"                                                                ",
"                                                                ",
"                                                                ",
"                          ++++++++++++                          ",
"                          ++++++++++++                          ",
"                          ++++++++++++                          ",
"                          ++++++++++++                          ",
"              ++++++++++oo++++++++++++oo++++++++++              ",
"              ++++++++++oo++++++++++++oo++++++++++              ",
"              ++++++++++oo@@@@@@@@@@@@oo++++++++++              ",
"              ++++++++++oo@@@@@@@@@@@@oo++++++++++              ",
"oo++++++++++oo++++++++++ooOOOOOOOOOOOOoo++++++++++oo++++++++++oo",
"oo++++++++++oo++++++++++ooOOOOOOOOOOOOoo++++++++++oo++++++++++oo",
"oo++++++++++oo@@@@@@@@@@ooOOOOOOOOOOOOoo@@@@@@@@@@oo++++++++++oo",
"oo++++++++++oo@@@@@@@@@@ooOOOOOOOOOOOOoo@@@@@@@@@@oo++++++++++oo",
"oo++++++++++ooOOOOOOOOOOooOOOOOOOOOOOOooOOOOOOOOOOoo++++++++++oo",
"oo++++++++++ooOOOOOOOOOOooOOOOOOOOOOOOooOOOOOOOOOOoo++++++++++oo",
"oo@@@@@@@@@@ooOOOOOOOOOOooOOOOOOOOOOOOooOOOOOOOOOOoo@@@@@@@@@@oo",
"oo@@@@@@@@@@ooOOOOOOOOOOooOOOOOOOOOOOOooOOOOOOOOOOoo@@@@@@@@@@oo",
"ooOOOOOOOOOOooOOOOOOOOOO                OOOOOOOOOOooOOOOOOOOOOoo",
"ooOOOOOOOOOOooOOOOOOOOOO                OOOOOOOOOOooOOOOOOOOOOoo",
"ooOOOOOOOOOO                                        OOOOOOOOOOoo",
"ooOOOOOOOOOO                                        OOOOOOOOOOoo",
"ooOOOOOOOOOO                                        OOOOOOOOOOoo",
"ooOOOOOOOOOO                                        OOOOOOOOOOoo",
"oooooooooooo                                        oooooooooooo",
"oooooooooooo                                        oooooooooooo",
"oo@@@@@@@@@@                                        @@@@@@@@@@oo",
"oo@@@@@@@@@@                                        @@@@@@@@@@oo",
"ooOOOOOOOOOO                                        OOOOOOOOOOoo",
"ooOOOOOOOOOO                                        OOOOOOOOOOoo",
"ooOOOOOOOOOO                                        OOOOOOOOOOoo",
"ooOOOOOOOOOO                                        OOOOOOOOOOoo",
"ooOOOOOOOOOO                                        OOOOOOOOOOoo",
"ooOOOOOOOOOO                                        OOOOOOOOOOoo",
"ooOOOOOOOOOO                                        OOOOOOOOOOoo",
"ooOOOOOOOOOO                                        OOOOOOOOOOoo",
"oooooooooooo                                        oooooooooooo",
"oooooooooooo                                        oooooooooooo",
"oo@@@@@@@@@@                                        @@@@@@@@@@oo",
"oo@@@@@@@@@@                                        @@@@@@@@@@oo",
"ooOOOOOOOOOO                                        OOOOOOOOOOoo",
"ooOOOOOOOOOO                                        OOOOOOOOOOoo",
"ooOOOOOOOOOO                                        OOOOOOOOOOoo",
"ooOOOOOOOOOO                                        OOOOOOOOOOoo",
"ooOOOOOOOOOO                                        OOOOOOOOOOoo",
"ooOOOOOOOOOO                                        OOOOOOOOOOoo",
"ooOOOOOOOOOO                                        OOOOOOOOOOoo",
"ooOOOOOOOOOO                                        OOOOOOOOOOoo",
"oooooooooooo            ................            oooooooooooo",
"oooooooooooo            ................            oooooooooooo",
"oo@@@@@@@@@@........................................@@@@@@@@@@oo",
"oo@@@@@@@@@@........................................@@@@@@@@@@oo",
"ooOOOOOOOOOO........................................OOOOOOOOOOoo",
"ooOOOOOOOOOO........................................OOOOOOOOOOoo",
"ooOOOOOOOOOO............XX..XXXXXXXX..XX............OOOOOOOOOOoo",
"ooOOOOOOOOOO............XX..XXXXXXXX..XX............OOOOOOOOOOoo",
"ooOOOOOOOOOOXXXXXX..XXXXXX..XXXXXXXX..XXXXXX..XXXXXXOOOOOOOOOOoo",
"ooOOOOOOOOOOXXXXXX..XXXXXX..XXXXXXXX..XXXXXX..XXXXXXOOOOOOOOOOoo"
};
