/* XPM */
static char *x2_0014_door_anim_opening_f11667990140[] = {
/* columns rows colors chars-per-pixel */
"64 64 15 1 ",
"  c None",
". c #060608",
"X c #412320",
"o c #59302C",
"O c #5C322D",
"+ c #6D3B36",
"@ c gray36",
"# c #434F65",
"$ c #9A544C",
"% c #6F7F9F",
"& c gray55",
"* c #8895AF",
"= c gray68",
"- c #A6B0C4",
"; c white",
/* pixels */
"                                                                ",
"                                                                ",
"                                                                ",
"                                                                ",
"                                                                ",
"                                                                ",
"                                                                ",
"                                                                ",
"                          ************                          ",
"                          ************                          ",
"                          ************                          ",
"                          ************                          ",
"              **********##************##**********              ",
"              **********##************##**********              ",
"              **********##------------##**********              ",
"              **********##------------##**********              ",
"##**********##**********##%%%%%%%%%%%%##**********##**********##",
"##**********##**********##%%%%%%%%%%%%##**********##**********##",
"##**********##----------##%%%%%%%%%%%%##----------##**********##",
"##**********##----------##%%%%%%%%%%%%##----------##**********##",
"##**********##%%%%%%%%%%##%%%%%%%%%%%%##%%%%%%%%%%##**********##",
"##**********##%%%%%%%%%%##%%%%%%%%%%%%##%%%%%%%%%%##**********##",
"##----------##%%%%%%%%%%##%%%%%%%%%%%%##%%%%%%%%%%##----------##",
"##----------##%%%%%%%%%%##%%%%%%%%%%%%##%%%%%%%%%%##----------##",
"##%%%%%%%%%%##%%%%%%%%%%ooXXooooooooXXoo%%%%%%%%%%##%%%%%%%%%%##",
"##%%%%%%%%%%##%%%%%%%%%%ooXXooooooooXXoo%%%%%%%%%%##%%%%%%%%%%##",
"##%%%%%%%%%%ooooooXXooooooXXooooooooXXooooooXXoooooo%%%%%%%%%%##",
"##%%%%%%%%%%ooooooXXooooooXXooooooooXXooooooXXoooooo%%%%%%%%%%##",
"##%%%%%%%%%%ooooooXX++++++OO++++++++OO++++++XXoooooo%%%%%%%%%%##",
"##%%%%%%%%%%ooooooXX++++++OO++++++++OO++++++XXoooooo%%%%%%%%%%##",
"############++++++OO++++++OO++++++++OO++++++OO++++++############",
"############++++++OO++++++OO++++++++OO++++++OO++++++############",
"##----------&&&&==OO++++++OO++....++OO++++++OO++++++----------##",
"##----------&&&&==OO++++++OO++....++OO++++++OO++++++----------##",
"##%%%%%%%%%%&&====OO++++++....;;;;..OO++++++OO++++++%%%%%%%%%%##",
"##%%%%%%%%%%&&====OO++++++....;;;;..OO++++++OO++++++%%%%%%%%%%##",
"##%%%%%%%%%%++++++OO++++++..==..@@;;..++++++OO++++++%%%%%%%%%%##",
"##%%%%%%%%%%++++++OO++++++..==..@@;;..++++++OO++++++%%%%%%%%%%##",
"##%%%%%%%%%%++++++OO++++++@@==..====;;..++++OO++++++%%%%%%%%%%##",
"##%%%%%%%%%%++++++OO++++++@@==..====;;..++++OO++++++%%%%%%%%%%##",
"##%%%%%%%%%%++++++OO++++++@@============++++OO++==++%%%%%%%%%%##",
"##%%%%%%%%%%++++++OO++++++@@============++++OO++==++%%%%%%%%%%##",
"############++++++OO++++..@@====....====..++OO++==++############",
"############++++++OO++++..@@====....====..++OO++==++############",
"##----------++++++OO++++++..======..======++OO++==++----------##",
"##----------++++++OO++++++..======..======++OO++==++----------##",
"##%%%%%%%%%%++++++OO++++++..@@==========..++OO++==++%%%%%%%%%%##",
"##%%%%%%%%%%++++++OO++++++..@@==========..++OO++==++%%%%%%%%%%##",
"##%%%%%%%%%%++++++OO++++++OO@@======....++++OO++==++%%%%%%%%%%##",
"##%%%%%%%%%%++++++OO++++++OO@@======....++++OO++==++%%%%%%%%%%##",
"##%%%%%%%%%%++++++OO++++++OO..@@....OO++++++OO++++++%%%%%%%%%%##",
"##%%%%%%%%%%++++++OO++++++OO..@@....OO++++++OO++++++%%%%%%%%%%##",
"##%%%%%%%%%%++++++OO++++++OO++++++++OO++++++OO++++++%%%%%%%%%%##",
"##%%%%%%%%%%++++++OO++++++OO++++++++OO++++++OO++++++%%%%%%%%%%##",
"############++++++OO++++++OO++++++++OO++++++OO++++++############",
"############++++++OO++++++OO++++++++OO++++++OO++++++############",
"##----------&&&&==OO++++++OO++++++++OO++++++OO++++++----------##",
"##----------&&&&==OO++++++OO++++++++OO++++++OO++++++----------##",
"##%%%%%%%%%%&&====OO++++++OO++++++++OO++++++OO++++++%%%%%%%%%%##",
"##%%%%%%%%%%&&====OO++++++OO++++++++OO++++++OO++++++%%%%%%%%%%##",
"##%%%%%%%%%%++++++OO++++++OO++++++++OO++++++OO++++++%%%%%%%%%%##",
"##%%%%%%%%%%++++++OO++++++OO++++++++OO++++++OO++++++%%%%%%%%%%##",
"##%%%%%%%%%%$$$$$$OO$$$$$$OO$$$$$$$$OO$$$$$$OO$$$$$$%%%%%%%%%%##",
"##%%%%%%%%%%$$$$$$OO$$$$$$OO$$$$$$$$OO$$$$$$OO$$$$$$%%%%%%%%%%##"
};
