/* XPM */
static char *x2_0011_door_anim_opening_f41667990139[] = {
/* columns rows colors chars-per-pixel */
"64 64 12 1 ",
"  c None",
". c #412320",
"X c #59302C",
"o c #5C322D",
"O c #6D3B36",
"+ c #434F65",
"@ c #9A544C",
"# c #6F7F9F",
"$ c gray55",
"% c #8895AF",
"& c gray68",
"* c #A6B0C4",
/* pixels */
"                                                                ",
"                                                                ",
"                                                                ",
"                                                                ",
"                                                                ",
"                                                                ",
"                                                                ",
"                                                                ",
"                          %%%%%%%%%%%%                          ",
"                          %%%%%%%%%%%%                          ",
"                          %%%%%%%%%%%%                          ",
"                          %%%%%%%%%%%%                          ",
"              %%%%%%%%%%++%%%%%%%%%%%%++%%%%%%%%%%              ",
"              %%%%%%%%%%++%%%%%%%%%%%%++%%%%%%%%%%              ",
"              %%%%%%%%%%++************++%%%%%%%%%%              ",
"              %%%%%%%%%%++************++%%%%%%%%%%              ",
"++%%%%%%%%%%++%%%%%%%%%%++############++%%%%%%%%%%++%%%%%%%%%%++",
"++%%%%%%%%%%++%%%%%%%%%%++############++%%%%%%%%%%++%%%%%%%%%%++",
"++%%%%%%%%%%++**********++############++**********++%%%%%%%%%%++",
"++%%%%%%%%%%++**********++############++**********++%%%%%%%%%%++",
"++%%%%%%%%%%++##########++############++##########++%%%%%%%%%%++",
"++%%%%%%%%%%++##########++############++##########++%%%%%%%%%%++",
"++**********++##########++############++##########++**********++",
"++**********++##########++############++##########++**********++",
"++##########++##########XX..XXXXXXXX..XX##########++##########++",
"++##########++##########XX..XXXXXXXX..XX##########++##########++",
"++##########XXXXXX..XXXXXX..XXXXXXXX..XXXXXX..XXXXXX##########++",
"++##########XXXXXX..XXXXXX..XXXXXXXX..XXXXXX..XXXXXX##########++",
"++##########XXXXXX..OOOOOOooOOOOOOOOooOOOOOO..XXXXXX##########++",
"++##########XXXXXX..OOOOOOooOOOOOOOOooOOOOOO..XXXXXX##########++",
"++++++++++++OOOOOOooOOOOOOooOOOOOOOOooOOOOOOooOOOOOO++++++++++++",
"++++++++++++OOOOOOooOOOOOOooOOOOOOOOooOOOOOOooOOOOOO++++++++++++",
"++**********$$$$&&ooOOOOOOooOOOOOOOOooOOOOOOooOOOOOO**********++",
"++**********$$$$&&ooOOOOOOooOOOOOOOOooOOOOOOooOOOOOO**********++",
"++##########$$&&&&ooOOOOOOooOOOOOOOOooOOOOOOooOOOOOO##########++",
"++##########$$&&&&ooOOOOOOooOOOOOOOOooOOOOOOooOOOOOO##########++",
"++##########OOOOOOooOOOO&&ooOOOOOOOOoo&&OOOOooOOOOOO##########++",
"++##########OOOOOOooOOOO&&ooOOOOOOOOoo&&OOOOooOOOOOO##########++",
"++##########OOOOOOooOOOOOO&&OOOOOOOO&&OOOOOOooOOOOOO##########++",
"++##########OOOOOOooOOOOOO&&OOOOOOOO&&OOOOOOooOOOOOO##########++",
"++##########OOOOOOooOOOOOOooOOOOOOOOooOOOOOOooOO&&OO##########++",
"++##########OOOOOOooOOOOOOooOOOOOOOOooOOOOOOooOO&&OO##########++",
"++++++++++++OOOOOOooOOOOOOooOO&&OOOOooOOOOOOooOO&&OO++++++++++++",
"++++++++++++OOOOOOooOOOOOOooOO&&OOOOooOOOOOOooOO&&OO++++++++++++",
"++**********OOOOOOooOOOOOOooOOOO&&OOooOOOOOOooOO&&OO**********++",
"++**********OOOOOOooOOOOOOooOOOO&&OOooOOOOOOooOO&&OO**********++",
"++##########OOOOOOooOOOOOOooOOOOOOOOooOOOOOOooOO&&OO##########++",
"++##########OOOOOOooOOOOOOooOOOOOOOOooOOOOOOooOO&&OO##########++",
"++##########OOOOOOooOOOOOO&&OOOOOOOOoo&&OOOOooOO&&OO##########++",
"++##########OOOOOOooOOOOOO&&OOOOOOOOoo&&OOOOooOO&&OO##########++",
"++##########OOOOOOooOOOO&&ooOOOOOOOOooOO&&OOooOOOOOO##########++",
"++##########OOOOOOooOOOO&&ooOOOOOOOOooOO&&OOooOOOOOO##########++",
"++##########OOOOOOooOOOOOOooOOOOOOOOooOOOOOOooOOOOOO##########++",
"++##########OOOOOOooOOOOOOooOOOOOOOOooOOOOOOooOOOOOO##########++",
"++++++++++++OOOOOOooOOOOOOooOOOOOOOOooOOOOOOooOOOOOO++++++++++++",
"++++++++++++OOOOOOooOOOOOOooOOOOOOOOooOOOOOOooOOOOOO++++++++++++",
"++**********$$$$&&ooOOOOOOooOOOOOOOOooOOOOOOooOOOOOO**********++",
"++**********$$$$&&ooOOOOOOooOOOOOOOOooOOOOOOooOOOOOO**********++",
"++##########$$&&&&ooOOOOOOooOOOOOOOOooOOOOOOooOOOOOO##########++",
"++##########$$&&&&ooOOOOOOooOOOOOOOOooOOOOOOooOOOOOO##########++",
"++##########OOOOOOooOOOOOOooOOOOOOOOooOOOOOOooOOOOOO##########++",
"++##########OOOOOOooOOOOOOooOOOOOOOOooOOOOOOooOOOOOO##########++",
"++##########@@@@@@oo@@@@@@oo@@@@@@@@oo@@@@@@oo@@@@@@##########++",
"++##########@@@@@@oo@@@@@@oo@@@@@@@@oo@@@@@@oo@@@@@@##########++"
};
