/* XPM */
static char *x2_0003_door_anim_opening_f121667990137[] = {
/* columns rows colors chars-per-pixel */
"64 64 6 1 ",
"  c None",
". c #434F65",
"X c #6F7F9F",
"o c #8895AF",
"O c gray68",
"+ c #A6B0C4",
/* pixels */
"                                                                ",
"                                                                ",
"                                                                ",
"                                                                ",
"                                                                ",
"                                                                ",
"                                                                ",
"                                                                ",
"                          oooooooooooo                          ",
"                          oooooooooooo                          ",
"                          oooooooooooo                          ",
"                          oooooooooooo                          ",
"              oooooooooo..oooooooooooo..oooooooooo              ",
"              oooooooooo..oooooooooooo..oooooooooo              ",
"              oooooooooo..++++++++++++..oooooooooo              ",
"              oooooooooo..++++++++++++..oooooooooo              ",
"..oooooooooo..oooooooooo..XXXXXXXXXXXX..oooooooooo..oooooooooo..",
"..oooooooooo..oooooooooo..XXXXXXXXXXXX..oooooooooo..oooooooooo..",
"..oooooooooo..++++++++++..XXXXXXXXXXXX..++++++++++..oooooooooo..",
"..oooooooooo..++++++++++..XXXXXXXXXXXX..++++++++++..oooooooooo..",
"..oooooooooo..XXXXXXXXXX..XXXXXXXXXXXX..XXXXXXXXXX..oooooooooo..",
"..oooooooooo..XXXXXXXXXX..XXXXXXXXXXXX..XXXXXXXXXX..oooooooooo..",
"..++++++++++..XXXXXXXXXX..XXXXXXXXXXXX..XXXXXXXXXX..++++++++++..",
"..++++++++++..XXXXXXXXXX..XXXXXXXXXXXX..XXXXXXXXXX..++++++++++..",
"..XXXXXXXXXX..XXXXXXXXXX                XXXXXXXXXX..XXXXXXXXXX..",
"..XXXXXXXXXX..XXXXXXXXXX                XXXXXXXXXX..XXXXXXXXXX..",
"..XXXXXXXXXX                                        XXXXXXXXXX..",
"..XXXXXXXXXX                                        XXXXXXXXXX..",
"..XXXXXXXXXX                                        XXXXXXXXXX..",
"..XXXXXXXXXX                                        XXXXXXXXXX..",
"............                                        ............",
"............                                        ............",
"..++++++++++                                        ++++++++++..",
"..++++++++++                                        ++++++++++..",
"..XXXXXXXXXX                                        XXXXXXXXXX..",
"..XXXXXXXXXX                                        XXXXXXXXXX..",
"..XXXXXXXXXX                                        XXXXXXXXXX..",
"..XXXXXXXXXX                                        XXXXXXXXXX..",
"..XXXXXXXXXX                                        XXXXXXXXXX..",
"..XXXXXXXXXX                                        XXXXXXXXXX..",
"..XXXXXXXXXX                                        XXXXXXXXXX..",
"..XXXXXXXXXX                                        XXXXXXXXXX..",
"............                                        ............",
"............                                        ............",
"..++++++++++                                        ++++++++++..",
"..++++++++++                                        ++++++++++..",
"..XXXXXXXXXX                                        XXXXXXXXXX..",
"..XXXXXXXXXX                                        XXXXXXXXXX..",
"..XXXXXXXXXX                                        XXXXXXXXXX..",
"..XXXXXXXXXX                                        XXXXXXXXXX..",
"..XXXXXXXXXX    OOOO                        OOOO    XXXXXXXXXX..",
"..XXXXXXXXXX    OOOO                        OOOO    XXXXXXXXXX..",
"..XXXXXXXXXX    OO                            OO    XXXXXXXXXX..",
"..XXXXXXXXXX    OO                            OO    XXXXXXXXXX..",
"............                                        ............",
"............                                        ............",
"..++++++++++                                        ++++++++++..",
"..++++++++++                                        ++++++++++..",
"..XXXXXXXXXX                                        XXXXXXXXXX..",
"..XXXXXXXXXX                                        XXXXXXXXXX..",
"..XXXXXXXXXX                                        XXXXXXXXXX..",
"..XXXXXXXXXX                                        XXXXXXXXXX..",
"..XXXXXXXXXX                                        XXXXXXXXXX..",
"..XXXXXXXXXX                                        XXXXXXXXXX.."
};
