/* XPM */
static char *x2_0078_stair_nextlevel1669215894[] = {
/* columns rows colors chars-per-pixel */
"32 32 7 1 ",
"  c black",
". c gray21",
"X c gray27",
"o c gray35",
"O c gray42",
"+ c gray47",
"@ c gray64",
/* pixels */
"                                ",
"                                ",
"  @@@@@@@@@@@@@@@@@@@@@@@@@@@@  ",
"  @@@@@@@@@@@@@@@@@@@@@@@@@@@@  ",
"  @@........XXXXXXXXXXXXXXXX@@  ",
"  @@........XXXXXXXXXXXXXXXX@@  ",
"  @@....XXXXXXXXXXXX++++++XX@@  ",
"  @@....XXXXXXXXXXXX++++++XX@@  ",
"  @@..XXXXXXXXXXXXXX++++++XX@@  ",
"  @@..XXXXXXXXXXXXXX++++++XX@@  ",
"  @@..XXXXXXOOOOOOXX++++++XX@@  ",
"  @@..XXXXXXOOOOOOXX++++++XX@@  ",
"  @@..XXXXXXOOOOOOXX++++++XX@@  ",
"  @@..XXXXXXOOOOOOXX++++++XX@@  ",
"  @@ooooooXXOOOOOOXX++++++XX@@  ",
"  @@ooooooXXOOOOOOXX++++++XX@@  ",
"  @@ooooooXXOOOOOOXX++++++XX@@  ",
"  @@ooooooXXOOOOOOXX++++++XX@@  ",
"  @@ooooooXXOOOOOOXX++++++XX@@  ",
"  @@ooooooXXOOOOOOXX++++++XX@@  ",
"  @@ooooooXXOOOOOOXX++++++XX@@  ",
"  @@ooooooXXOOOOOOXX++++++XX@@  ",
"  @@ooooooXXOOOOOOXX++++++XX@@  ",
"  @@ooooooXXOOOOOOXX++++++XX@@  ",
"  @@ooooooXXOOOOOOXX++++++XX@@  ",
"  @@ooooooXXOOOOOOXX++++++XX@@  ",
"  @@ooooooXXOOOOOOXX++++++XX@@  ",
"  @@ooooooXXOOOOOOXX++++++XX@@  ",
"  @@@@@@@@@@@@@@@@@@@@@@@@@@@@  ",
"  @@@@@@@@@@@@@@@@@@@@@@@@@@@@  ",
"                                ",
"                                "
};
